<?xml version="1.0" encoding="utf-8" standalone="no"?>
<!DOCTYPE svg PUBLIC "-//W3C//DTD SVG 1.1//EN"
  "http://www.w3.org/Graphics/SVG/1.1/DTD/svg11.dtd">
<svg xmlns:xlink="http://www.w3.org/1999/xlink" width="690.699375pt" height="498.88pt" viewBox="0 0 690.699375 498.88" xmlns="http://www.w3.org/2000/svg" version="1.1">
 <metadata>
  <rdf:RDF xmlns:dc="http://purl.org/dc/elements/1.1/" xmlns:cc="http://creativecommons.org/ns#" xmlns:rdf="http://www.w3.org/1999/02/22-rdf-syntax-ns#">
   <cc:Work>
    <dc:type rdf:resource="http://purl.org/dc/dcmitype/StillImage"/>
    <dc:date>2026-03-18T17:19:11.908684</dc:date>
    <dc:format>image/svg+xml</dc:format>
    <dc:creator>
     <cc:Agent>
      <dc:title>Matplotlib v3.10.8, https://matplotlib.org/</dc:title>
     </cc:Agent>
    </dc:creator>
   </cc:Work>
  </rdf:RDF>
 </metadata>
 <defs>
  <style type="text/css">*{stroke-linejoin: round; stroke-linecap: butt}</style>
 </defs>
 <g id="figure_1">
  <g id="patch_1">
   <path d="M 0 498.88 
L 690.699375 498.88 
L 690.699375 0 
L 0 0 
z
" style="fill: #ffffff"/>
  </g>
  <g id="axes_1">
   <g id="patch_2">
    <path d="M 55.949375 169.54875 
L 323.265938 169.54875 
L 323.265938 28.4 
L 55.949375 28.4 
z
" style="fill: #ffffff"/>
   </g>
   <g id="FillBetweenPolyCollection_1">
    <defs>
     <path id="mf11bbbe3b5" d="M 68.100128 -448.294559 
L 68.100128 -448.294559 
L 92.401634 -436.051345 
L 116.703139 -429.69868 
L 141.004645 -407.353541 
L 165.306151 -400.246216 
L 189.607656 -392.25314 
L 213.909162 -368.182745 
L 238.210668 -358.398095 
L 262.512173 -347.813325 
L 286.813679 -335.747102 
L 311.115185 -339.059095 
L 311.115185 -423.565942 
L 311.115185 -423.565942 
L 286.813679 -419.762531 
L 262.512173 -427.714027 
L 238.210668 -433.983644 
L 213.909162 -439.057122 
L 189.607656 -453.170309 
L 165.306151 -455.478943 
L 141.004645 -456.345495 
L 116.703139 -464.064148 
L 92.401634 -460.050134 
L 68.100128 -448.294559 
z
" style="stroke: #1f77b4; stroke-opacity: 0.15"/>
    </defs>
    <g clip-path="url(#p1f87bcea30)">
     <use xlink:href="#mf11bbbe3b5" x="0" y="498.88" style="fill: #1f77b4; fill-opacity: 0.15; stroke: #1f77b4; stroke-opacity: 0.15"/>
    </g>
   </g>
   <g id="FillBetweenPolyCollection_2">
    <defs>
     <path id="ma4f937e642" d="M 68.100128 -448.294559 
L 68.100128 -448.294559 
L 92.401634 -453.28882 
L 116.703139 -457.499192 
L 141.004645 -421.670685 
L 165.306151 -408.506827 
L 189.607656 -395.262447 
L 213.909162 -381.354333 
L 238.210668 -366.824021 
L 262.512173 -351.585574 
L 286.813679 -349.460855 
L 311.115185 -347.251473 
L 311.115185 -409.197999 
L 311.115185 -409.197999 
L 286.813679 -411.804408 
L 262.512173 -414.294199 
L 238.210668 -425.259208 
L 213.909162 -434.897279 
L 189.607656 -443.055393 
L 165.306151 -449.934314 
L 141.004645 -455.517548 
L 116.703139 -459.952207 
L 92.401634 -454.502518 
L 68.100128 -448.294559 
z
" style="stroke: #ff7f0e; stroke-opacity: 0.15"/>
    </defs>
    <g clip-path="url(#p1f87bcea30)">
     <use xlink:href="#ma4f937e642" x="0" y="498.88" style="fill: #ff7f0e; fill-opacity: 0.15; stroke: #ff7f0e; stroke-opacity: 0.15"/>
    </g>
   </g>
   <g id="FillBetweenPolyCollection_3">
    <defs>
     <path id="m1c8ddb8e1a" d="M 68.100128 -448.294559 
L 68.100128 -448.294559 
L 92.401634 -450.542789 
L 116.703139 -451.900198 
L 141.004645 -429.441654 
L 165.306151 -412.458532 
L 189.607656 -411.659127 
L 213.909162 -394.160327 
L 238.210668 -391.26259 
L 262.512173 -372.700638 
L 286.813679 -368.087362 
L 311.115185 -363.115047 
L 311.115185 -408.640647 
L 311.115185 -408.640647 
L 286.813679 -414.065619 
L 262.512173 -419.093619 
L 238.210668 -431.839986 
L 213.909162 -434.896169 
L 189.607656 -444.997776 
L 165.306151 -445.916313 
L 141.004645 -453.184573 
L 116.703139 -453.109581 
L 92.401634 -451.14455 
L 68.100128 -448.294559 
z
" style="stroke: #2ca02c; stroke-opacity: 0.15"/>
    </defs>
    <g clip-path="url(#p1f87bcea30)">
     <use xlink:href="#m1c8ddb8e1a" x="0" y="498.88" style="fill: #2ca02c; fill-opacity: 0.15; stroke: #2ca02c; stroke-opacity: 0.15"/>
    </g>
   </g>
   <g id="FillBetweenPolyCollection_4">
    <defs>
     <path id="m2c0113176d" d="M 68.100128 -448.294559 
L 68.100128 -448.294559 
L 92.401634 -449.192742 
L 116.703139 -449.195047 
L 141.004645 -448.331405 
L 165.306151 -423.622015 
L 189.607656 -421.236399 
L 213.909162 -417.791137 
L 238.210668 -413.347971 
L 262.512173 -407.902532 
L 286.813679 -401.562771 
L 311.115185 -394.726909 
L 311.115185 -416.882742 
L 311.115185 -416.882742 
L 286.813679 -424.00941 
L 262.512173 -430.622002 
L 238.210668 -436.332693 
L 213.909162 -440.96464 
L 189.607656 -444.561978 
L 165.306151 -447.090635 
L 141.004645 -449.254289 
L 116.703139 -449.80195 
L 92.401634 -449.493299 
L 68.100128 -448.294559 
z
" style="stroke: #d62728; stroke-opacity: 0.15"/>
    </defs>
    <g clip-path="url(#p1f87bcea30)">
     <use xlink:href="#m2c0113176d" x="0" y="498.88" style="fill: #d62728; fill-opacity: 0.15; stroke: #d62728; stroke-opacity: 0.15"/>
    </g>
   </g>
   <g id="FillBetweenPolyCollection_5">
    <defs>
     <path id="m796420d205" d="M 68.100128 -448.294559 
L 68.100128 -448.294559 
L 92.401634 -448.502448 
L 116.703139 -447.822574 
L 141.004645 -446.213508 
L 165.306151 -443.70444 
L 189.607656 -440.215694 
L 213.909162 -435.830891 
L 238.210668 -430.351385 
L 262.512173 -423.932866 
L 286.813679 -416.70277 
L 311.115185 -408.632688 
L 311.115185 -410.246694 
L 311.115185 -410.246694 
L 286.813679 -418.099282 
L 262.512173 -425.146434 
L 238.210668 -431.391562 
L 213.909162 -436.732714 
L 189.607656 -440.980941 
L 165.306151 -444.318934 
L 141.004645 -446.664487 
L 116.703139 -448.122336 
L 92.401634 -448.649308 
L 68.100128 -448.294559 
z
" style="stroke: #9467bd; stroke-opacity: 0.15"/>
    </defs>
    <g clip-path="url(#p1f87bcea30)">
     <use xlink:href="#m796420d205" x="0" y="498.88" style="fill: #9467bd; fill-opacity: 0.15; stroke: #9467bd; stroke-opacity: 0.15"/>
    </g>
   </g>
   <g id="matplotlib.axis_1">
    <g id="xtick_1">
     <g id="line2d_1">
      <defs>
       <path id="md0a8c69001" d="M 0 0 
L 0 3.5 
" style="stroke: #000000; stroke-width: 0.8"/>
      </defs>
      <g>
       <use xlink:href="#md0a8c69001" x="68.100128" y="169.54875" style="stroke: #000000; stroke-width: 0.8"/>
      </g>
     </g>
     <g id="text_1">
      <!-- 0.0 -->
      <g transform="translate(56.96794 187.186562) scale(0.14 -0.14)">
       <defs>
        <path id="DejaVuSerif-30" d="M 2034 219 
Q 2513 219 2750 744 
Q 2988 1269 2988 2328 
Q 2988 3391 2750 3916 
Q 2513 4441 2034 4441 
Q 1556 4441 1318 3916 
Q 1081 3391 1081 2328 
Q 1081 1269 1318 744 
Q 1556 219 2034 219 
z
M 2034 -91 
Q 1275 -91 848 546 
Q 422 1184 422 2328 
Q 422 3475 848 4112 
Q 1275 4750 2034 4750 
Q 2797 4750 3222 4112 
Q 3647 3475 3647 2328 
Q 3647 1184 3222 546 
Q 2797 -91 2034 -91 
z
" transform="scale(0.015625)"/>
        <path id="DejaVuSerif-2e" d="M 603 325 
Q 603 500 722 622 
Q 841 744 1019 744 
Q 1191 744 1312 622 
Q 1434 500 1434 325 
Q 1434 153 1312 31 
Q 1191 -91 1019 -91 
Q 841 -91 722 29 
Q 603 150 603 325 
z
" transform="scale(0.015625)"/>
       </defs>
       <use xlink:href="#DejaVuSerif-30"/>
       <use xlink:href="#DejaVuSerif-2e" transform="translate(63.623047 0)"/>
       <use xlink:href="#DejaVuSerif-30" transform="translate(95.410156 0)"/>
      </g>
     </g>
    </g>
    <g id="xtick_2">
     <g id="line2d_2">
      <g>
       <use xlink:href="#md0a8c69001" x="116.703139" y="169.54875" style="stroke: #000000; stroke-width: 0.8"/>
      </g>
     </g>
     <g id="text_2">
      <!-- 0.2 -->
      <g transform="translate(105.570952 187.186562) scale(0.14 -0.14)">
       <defs>
        <path id="DejaVuSerif-32" d="M 819 3553 
L 469 3553 
L 469 4384 
Q 803 4563 1142 4656 
Q 1481 4750 1806 4750 
Q 2534 4750 2956 4397 
Q 3378 4044 3378 3438 
Q 3378 2753 2422 1800 
Q 2347 1728 2309 1691 
L 1131 513 
L 3078 513 
L 3078 1088 
L 3444 1088 
L 3444 0 
L 434 0 
L 434 341 
L 1850 1753 
Q 2319 2222 2519 2614 
Q 2719 3006 2719 3438 
Q 2719 3909 2473 4175 
Q 2228 4441 1797 4441 
Q 1350 4441 1106 4219 
Q 863 3997 819 3553 
z
" transform="scale(0.015625)"/>
       </defs>
       <use xlink:href="#DejaVuSerif-30"/>
       <use xlink:href="#DejaVuSerif-2e" transform="translate(63.623047 0)"/>
       <use xlink:href="#DejaVuSerif-32" transform="translate(95.410156 0)"/>
      </g>
     </g>
    </g>
    <g id="xtick_3">
     <g id="line2d_3">
      <g>
       <use xlink:href="#md0a8c69001" x="165.306151" y="169.54875" style="stroke: #000000; stroke-width: 0.8"/>
      </g>
     </g>
     <g id="text_3">
      <!-- 0.4 -->
      <g transform="translate(154.173963 187.186562) scale(0.14 -0.14)">
       <defs>
        <path id="DejaVuSerif-34" d="M 2234 1581 
L 2234 4063 
L 641 1581 
L 2234 1581 
z
M 3609 0 
L 1484 0 
L 1484 331 
L 2234 331 
L 2234 1247 
L 197 1247 
L 197 1588 
L 2241 4750 
L 2859 4750 
L 2859 1581 
L 3750 1581 
L 3750 1247 
L 2859 1247 
L 2859 331 
L 3609 331 
L 3609 0 
z
" transform="scale(0.015625)"/>
       </defs>
       <use xlink:href="#DejaVuSerif-30"/>
       <use xlink:href="#DejaVuSerif-2e" transform="translate(63.623047 0)"/>
       <use xlink:href="#DejaVuSerif-34" transform="translate(95.410156 0)"/>
      </g>
     </g>
    </g>
    <g id="xtick_4">
     <g id="line2d_4">
      <g>
       <use xlink:href="#md0a8c69001" x="213.909162" y="169.54875" style="stroke: #000000; stroke-width: 0.8"/>
      </g>
     </g>
     <g id="text_4">
      <!-- 0.6 -->
      <g transform="translate(202.776974 187.186562) scale(0.14 -0.14)">
       <defs>
        <path id="DejaVuSerif-36" d="M 2094 219 
Q 2534 219 2771 542 
Q 3009 866 3009 1472 
Q 3009 2078 2771 2401 
Q 2534 2725 2094 2725 
Q 1647 2725 1412 2412 
Q 1178 2100 1178 1509 
Q 1178 888 1415 553 
Q 1653 219 2094 219 
z
M 1075 2569 
Q 1288 2803 1556 2918 
Q 1825 3034 2163 3034 
Q 2859 3034 3264 2615 
Q 3669 2197 3669 1472 
Q 3669 763 3233 336 
Q 2797 -91 2069 -91 
Q 1278 -91 853 498 
Q 428 1088 428 2181 
Q 428 3406 931 4078 
Q 1434 4750 2350 4750 
Q 2597 4750 2869 4703 
Q 3141 4656 3425 4563 
L 3425 3794 
L 3072 3794 
Q 3034 4109 2831 4275 
Q 2628 4441 2284 4441 
Q 1678 4441 1381 3981 
Q 1084 3522 1075 2569 
z
" transform="scale(0.015625)"/>
       </defs>
       <use xlink:href="#DejaVuSerif-30"/>
       <use xlink:href="#DejaVuSerif-2e" transform="translate(63.623047 0)"/>
       <use xlink:href="#DejaVuSerif-36" transform="translate(95.410156 0)"/>
      </g>
     </g>
    </g>
    <g id="xtick_5">
     <g id="line2d_5">
      <g>
       <use xlink:href="#md0a8c69001" x="262.512173" y="169.54875" style="stroke: #000000; stroke-width: 0.8"/>
      </g>
     </g>
     <g id="text_5">
      <!-- 0.8 -->
      <g transform="translate(251.379986 187.186562) scale(0.14 -0.14)">
       <defs>
        <path id="DejaVuSerif-38" d="M 2981 1275 
Q 2981 1775 2732 2051 
Q 2484 2328 2034 2328 
Q 1584 2328 1336 2051 
Q 1088 1775 1088 1275 
Q 1088 772 1336 495 
Q 1584 219 2034 219 
Q 2484 219 2732 495 
Q 2981 772 2981 1275 
z
M 2853 3541 
Q 2853 3966 2637 4203 
Q 2422 4441 2034 4441 
Q 1650 4441 1433 4203 
Q 1216 3966 1216 3541 
Q 1216 3113 1433 2875 
Q 1650 2638 2034 2638 
Q 2422 2638 2637 2875 
Q 2853 3113 2853 3541 
z
M 2516 2484 
Q 3047 2413 3344 2092 
Q 3641 1772 3641 1275 
Q 3641 619 3225 264 
Q 2809 -91 2034 -91 
Q 1263 -91 845 264 
Q 428 619 428 1275 
Q 428 1772 725 2092 
Q 1022 2413 1556 2484 
Q 1084 2569 832 2842 
Q 581 3116 581 3541 
Q 581 4103 968 4426 
Q 1356 4750 2034 4750 
Q 2713 4750 3100 4426 
Q 3488 4103 3488 3541 
Q 3488 3116 3236 2842 
Q 2984 2569 2516 2484 
z
" transform="scale(0.015625)"/>
       </defs>
       <use xlink:href="#DejaVuSerif-30"/>
       <use xlink:href="#DejaVuSerif-2e" transform="translate(63.623047 0)"/>
       <use xlink:href="#DejaVuSerif-38" transform="translate(95.410156 0)"/>
      </g>
     </g>
    </g>
    <g id="xtick_6">
     <g id="line2d_6">
      <g>
       <use xlink:href="#md0a8c69001" x="311.115185" y="169.54875" style="stroke: #000000; stroke-width: 0.8"/>
      </g>
     </g>
     <g id="text_6">
      <!-- 1.0 -->
      <g transform="translate(299.982997 187.186562) scale(0.14 -0.14)">
       <defs>
        <path id="DejaVuSerif-31" d="M 909 0 
L 909 331 
L 1722 331 
L 1722 4213 
L 781 3603 
L 781 4013 
L 1919 4750 
L 2350 4750 
L 2350 331 
L 3163 331 
L 3163 0 
L 909 0 
z
" transform="scale(0.015625)"/>
       </defs>
       <use xlink:href="#DejaVuSerif-31"/>
       <use xlink:href="#DejaVuSerif-2e" transform="translate(63.623047 0)"/>
       <use xlink:href="#DejaVuSerif-30" transform="translate(95.410156 0)"/>
      </g>
     </g>
    </g>
    <g id="text_7">
     <!-- Time -->
     <g transform="translate(169.391406 206.255625) scale(0.16 -0.16)">
      <defs>
       <path id="DejaVuSerif-54" d="M 1222 0 
L 1222 331 
L 1819 331 
L 1819 4294 
L 447 4294 
L 447 3566 
L 63 3566 
L 63 4666 
L 4206 4666 
L 4206 3566 
L 3822 3566 
L 3822 4294 
L 2450 4294 
L 2450 331 
L 3047 331 
L 3047 0 
L 1222 0 
z
" transform="scale(0.015625)"/>
       <path id="DejaVuSerif-69" d="M 622 4353 
Q 622 4497 726 4603 
Q 831 4709 978 4709 
Q 1122 4709 1226 4603 
Q 1331 4497 1331 4353 
Q 1331 4206 1228 4103 
Q 1125 4000 978 4000 
Q 831 4000 726 4103 
Q 622 4206 622 4353 
z
M 1356 331 
L 1900 331 
L 1900 0 
L 231 0 
L 231 331 
L 781 331 
L 781 2988 
L 231 2988 
L 231 3322 
L 1356 3322 
L 1356 331 
z
" transform="scale(0.015625)"/>
       <path id="DejaVuSerif-6d" d="M 3316 2675 
Q 3481 3041 3739 3227 
Q 3997 3413 4341 3413 
Q 4863 3413 5119 3089 
Q 5375 2766 5375 2113 
L 5375 331 
L 5894 331 
L 5894 0 
L 4300 0 
L 4300 331 
L 4800 331 
L 4800 2047 
Q 4800 2556 4650 2772 
Q 4500 2988 4153 2988 
Q 3769 2988 3567 2697 
Q 3366 2406 3366 1850 
L 3366 331 
L 3866 331 
L 3866 0 
L 2291 0 
L 2291 331 
L 2791 331 
L 2791 2069 
Q 2791 2566 2641 2777 
Q 2491 2988 2144 2988 
Q 1759 2988 1557 2697 
Q 1356 2406 1356 1850 
L 1356 331 
L 1856 331 
L 1856 0 
L 263 0 
L 263 331 
L 781 331 
L 781 2994 
L 231 2994 
L 231 3322 
L 1356 3322 
L 1356 2731 
Q 1516 3063 1762 3238 
Q 2009 3413 2322 3413 
Q 2709 3413 2968 3220 
Q 3228 3028 3316 2675 
z
" transform="scale(0.015625)"/>
       <path id="DejaVuSerif-65" d="M 3469 1600 
L 991 1600 
L 991 1575 
Q 991 903 1244 561 
Q 1497 219 1991 219 
Q 2369 219 2611 417 
Q 2853 616 2950 1006 
L 3413 1006 
Q 3275 459 2904 184 
Q 2534 -91 1931 -91 
Q 1203 -91 761 389 
Q 319 869 319 1663 
Q 319 2450 753 2931 
Q 1188 3413 1894 3413 
Q 2647 3413 3050 2948 
Q 3453 2484 3469 1600 
z
M 2791 1931 
Q 2772 2513 2545 2808 
Q 2319 3103 1894 3103 
Q 1497 3103 1269 2806 
Q 1041 2509 991 1931 
L 2791 1931 
z
" transform="scale(0.015625)"/>
      </defs>
      <use xlink:href="#DejaVuSerif-54"/>
      <use xlink:href="#DejaVuSerif-69" transform="translate(66.699219 0)"/>
      <use xlink:href="#DejaVuSerif-6d" transform="translate(98.681641 0)"/>
      <use xlink:href="#DejaVuSerif-65" transform="translate(193.505859 0)"/>
     </g>
    </g>
   </g>
   <g id="matplotlib.axis_2">
    <g id="ytick_1">
     <g id="line2d_7">
      <defs>
       <path id="m1237e21949" d="M 0 0 
L -3.5 0 
" style="stroke: #000000; stroke-width: 0.8"/>
      </defs>
      <g>
       <use xlink:href="#m1237e21949" x="55.949375" y="168.77369" style="stroke: #000000; stroke-width: 0.8"/>
      </g>
     </g>
     <g id="text_8">
      <!-- 0.6 -->
      <g transform="translate(26.685 174.092596) scale(0.14 -0.14)">
       <use xlink:href="#DejaVuSerif-30"/>
       <use xlink:href="#DejaVuSerif-2e" transform="translate(63.623047 0)"/>
       <use xlink:href="#DejaVuSerif-36" transform="translate(95.410156 0)"/>
      </g>
     </g>
    </g>
    <g id="ytick_2">
     <g id="line2d_8">
      <g>
       <use xlink:href="#m1237e21949" x="55.949375" y="139.226628" style="stroke: #000000; stroke-width: 0.8"/>
      </g>
     </g>
     <g id="text_9">
      <!-- 0.7 -->
      <g transform="translate(26.685 144.545534) scale(0.14 -0.14)">
       <defs>
        <path id="DejaVuSerif-37" d="M 3609 4347 
L 1784 0 
L 1319 0 
L 3059 4153 
L 903 4153 
L 903 3578 
L 538 3578 
L 538 4666 
L 3609 4666 
L 3609 4347 
z
" transform="scale(0.015625)"/>
       </defs>
       <use xlink:href="#DejaVuSerif-30"/>
       <use xlink:href="#DejaVuSerif-2e" transform="translate(63.623047 0)"/>
       <use xlink:href="#DejaVuSerif-37" transform="translate(95.410156 0)"/>
      </g>
     </g>
    </g>
    <g id="ytick_3">
     <g id="line2d_9">
      <g>
       <use xlink:href="#m1237e21949" x="55.949375" y="109.679566" style="stroke: #000000; stroke-width: 0.8"/>
      </g>
     </g>
     <g id="text_10">
      <!-- 0.8 -->
      <g transform="translate(26.685 114.998472) scale(0.14 -0.14)">
       <use xlink:href="#DejaVuSerif-30"/>
       <use xlink:href="#DejaVuSerif-2e" transform="translate(63.623047 0)"/>
       <use xlink:href="#DejaVuSerif-38" transform="translate(95.410156 0)"/>
      </g>
     </g>
    </g>
    <g id="ytick_4">
     <g id="line2d_10">
      <g>
       <use xlink:href="#m1237e21949" x="55.949375" y="80.132504" style="stroke: #000000; stroke-width: 0.8"/>
      </g>
     </g>
     <g id="text_11">
      <!-- 0.9 -->
      <g transform="translate(26.685 85.45141) scale(0.14 -0.14)">
       <defs>
        <path id="DejaVuSerif-39" d="M 2994 2091 
Q 2784 1856 2512 1740 
Q 2241 1625 1900 1625 
Q 1206 1625 804 2044 
Q 403 2463 403 3188 
Q 403 3897 839 4323 
Q 1275 4750 2003 4750 
Q 2794 4750 3217 4161 
Q 3641 3572 3641 2478 
Q 3641 1253 3137 581 
Q 2634 -91 1722 -91 
Q 1475 -91 1203 -44 
Q 931 3 647 97 
L 647 872 
L 997 872 
Q 1038 556 1241 387 
Q 1444 219 1784 219 
Q 2391 219 2687 676 
Q 2984 1134 2994 2091 
z
M 1978 4441 
Q 1534 4441 1298 4117 
Q 1063 3794 1063 3188 
Q 1063 2581 1298 2256 
Q 1534 1931 1978 1931 
Q 2422 1931 2658 2245 
Q 2894 2559 2894 3150 
Q 2894 3772 2656 4106 
Q 2419 4441 1978 4441 
z
" transform="scale(0.015625)"/>
       </defs>
       <use xlink:href="#DejaVuSerif-30"/>
       <use xlink:href="#DejaVuSerif-2e" transform="translate(63.623047 0)"/>
       <use xlink:href="#DejaVuSerif-39" transform="translate(95.410156 0)"/>
      </g>
     </g>
    </g>
    <g id="ytick_5">
     <g id="line2d_11">
      <g>
       <use xlink:href="#m1237e21949" x="55.949375" y="50.585441" style="stroke: #000000; stroke-width: 0.8"/>
      </g>
     </g>
     <g id="text_12">
      <!-- 1.0 -->
      <g transform="translate(26.685 55.904348) scale(0.14 -0.14)">
       <use xlink:href="#DejaVuSerif-31"/>
       <use xlink:href="#DejaVuSerif-2e" transform="translate(63.623047 0)"/>
       <use xlink:href="#DejaVuSerif-30" transform="translate(95.410156 0)"/>
      </g>
     </g>
    </g>
    <g id="text_13">
     <!-- $\langle X_0 \rangle$ -->
     <g transform="translate(19.3575 114.494375) rotate(-90) scale(0.16 -0.16)">
      <defs>
       <path id="DejaVuSans-27e8" d="M 572 2006 
L 1453 4856 
L 1984 4856 
L 1103 2006 
L 1984 -844 
L 1453 -844 
L 572 2006 
z
" transform="scale(0.015625)"/>
       <path id="DejaVuSans-Oblique-58" d="M 878 4666 
L 1516 4666 
L 2316 2981 
L 3763 4666 
L 4500 4666 
L 2578 2438 
L 3738 0 
L 3103 0 
L 2163 1966 
L 459 0 
L -275 0 
L 1906 2509 
L 878 4666 
z
" transform="scale(0.015625)"/>
       <path id="DejaVuSans-30" d="M 2034 4250 
Q 1547 4250 1301 3770 
Q 1056 3291 1056 2328 
Q 1056 1369 1301 889 
Q 1547 409 2034 409 
Q 2525 409 2770 889 
Q 3016 1369 3016 2328 
Q 3016 3291 2770 3770 
Q 2525 4250 2034 4250 
z
M 2034 4750 
Q 2819 4750 3233 4129 
Q 3647 3509 3647 2328 
Q 3647 1150 3233 529 
Q 2819 -91 2034 -91 
Q 1250 -91 836 529 
Q 422 1150 422 2328 
Q 422 3509 836 4129 
Q 1250 4750 2034 4750 
z
" transform="scale(0.015625)"/>
       <path id="DejaVuSans-27e9" d="M 1925 2006 
L 1044 -844 
L 513 -844 
L 1394 2006 
L 513 4856 
L 1044 4856 
L 1925 2006 
z
" transform="scale(0.015625)"/>
      </defs>
      <use xlink:href="#DejaVuSans-27e8" transform="translate(0 0.125)"/>
      <use xlink:href="#DejaVuSans-Oblique-58" transform="translate(39.013672 0.125)"/>
      <use xlink:href="#DejaVuSans-30" transform="translate(107.519531 -16.28125) scale(0.7)"/>
      <use xlink:href="#DejaVuSans-27e9" transform="translate(154.790039 0.125)"/>
     </g>
    </g>
   </g>
   <g id="line2d_12">
    <path d="M 68.100128 50.585441 
L 92.401634 51.028921 
L 116.703139 52.36031 
L 141.004645 54.582817 
L 165.306151 57.702722 
L 189.607656 61.730473 
L 213.909162 66.681825 
L 238.210668 72.578644 
L 262.512173 79.449055 
L 286.813679 87.326615 
L 311.115185 96.24832 
" clip-path="url(#p1f87bcea30)" style="fill: none; stroke: #000000; stroke-width: 2; stroke-linecap: square"/>
   </g>
   <g id="line2d_13">
    <path d="M 68.100128 50.585441 
L 92.401634 50.82926 
L 116.703139 51.998586 
L 141.004645 67.030482 
L 165.306151 71.017421 
L 189.607656 76.168275 
L 213.909162 95.260067 
L 238.210668 102.689131 
L 262.512173 111.116324 
L 286.813679 121.125184 
L 311.115185 117.567481 
" clip-path="url(#p1f87bcea30)" style="fill: none; stroke: #1f77b4; stroke-width: 2; stroke-linecap: square"/>
   </g>
   <g id="line2d_14">
    <path d="M 68.100128 50.585441 
L 92.401634 44.984331 
L 116.703139 40.154301 
L 141.004645 60.285883 
L 165.306151 69.659429 
L 189.607656 79.72108 
L 213.909162 90.754194 
L 238.210668 102.838385 
L 262.512173 115.940113 
L 286.813679 118.247368 
L 311.115185 120.655264 
" clip-path="url(#p1f87bcea30)" style="fill: none; stroke: #ff7f0e; stroke-width: 2; stroke-linecap: square"/>
   </g>
   <g id="line2d_15">
    <path d="M 68.100128 50.585441 
L 92.401634 48.03633 
L 116.703139 46.37511 
L 141.004645 57.566886 
L 165.306151 69.692577 
L 189.607656 70.551548 
L 213.909162 84.351752 
L 238.210668 87.328712 
L 262.512173 102.982871 
L 286.813679 107.803509 
L 311.115185 113.002153 
" clip-path="url(#p1f87bcea30)" style="fill: none; stroke: #2ca02c; stroke-width: 2; stroke-linecap: square"/>
   </g>
   <g id="line2d_16">
    <path d="M 68.100128 50.585441 
L 92.401634 49.536979 
L 116.703139 49.381502 
L 141.004645 50.087153 
L 165.306151 63.523675 
L 189.607656 65.980812 
L 213.909162 69.502112 
L 238.210668 74.039668 
L 262.512173 79.617733 
L 286.813679 86.093909 
L 311.115185 93.075174 
" clip-path="url(#p1f87bcea30)" style="fill: none; stroke: #d62728; stroke-width: 2; stroke-linecap: square"/>
   </g>
   <g id="line2d_17">
    <path d="M 68.100128 50.585441 
L 92.401634 50.304122 
L 116.703139 50.907545 
L 141.004645 52.441002 
L 165.306151 54.868313 
L 189.607656 58.281683 
L 213.909162 62.598198 
L 238.210668 68.008527 
L 262.512173 74.34035 
L 286.813679 81.478974 
L 311.115185 89.440309 
" clip-path="url(#p1f87bcea30)" style="fill: none; stroke: #9467bd; stroke-width: 2; stroke-linecap: square"/>
   </g>
   <g id="patch_3">
    <path d="M 55.949375 169.54875 
L 55.949375 28.4 
" style="fill: none; stroke: #000000; stroke-width: 0.8; stroke-linejoin: miter; stroke-linecap: square"/>
   </g>
   <g id="patch_4">
    <path d="M 323.265938 169.54875 
L 323.265938 28.4 
" style="fill: none; stroke: #000000; stroke-width: 0.8; stroke-linejoin: miter; stroke-linecap: square"/>
   </g>
   <g id="patch_5">
    <path d="M 55.949375 169.54875 
L 323.265938 169.54875 
" style="fill: none; stroke: #000000; stroke-width: 0.8; stroke-linejoin: miter; stroke-linecap: square"/>
   </g>
   <g id="patch_6">
    <path d="M 55.949375 28.4 
L 323.265938 28.4 
" style="fill: none; stroke: #000000; stroke-width: 0.8; stroke-linejoin: miter; stroke-linecap: square"/>
   </g>
   <g id="text_14">
    <!-- $\bf{A}$  Expectation value -->
    <g transform="translate(55.949375 22.4) scale(0.2 -0.2)">
     <defs>
      <path id="DejaVuSans-Bold-41" d="M 3419 850 
L 1538 850 
L 1241 0 
L 31 0 
L 1759 4666 
L 3194 4666 
L 4922 0 
L 3713 0 
L 3419 850 
z
M 1838 1716 
L 3116 1716 
L 2478 3572 
L 1838 1716 
z
" transform="scale(0.015625)"/>
      <path id="DejaVuSerif-20" transform="scale(0.015625)"/>
      <path id="DejaVuSerif-45" d="M 353 0 
L 353 331 
L 947 331 
L 947 4331 
L 353 4331 
L 353 4666 
L 4109 4666 
L 4109 3628 
L 3725 3628 
L 3725 4281 
L 1581 4281 
L 1581 2719 
L 3109 2719 
L 3109 3303 
L 3494 3303 
L 3494 1753 
L 3109 1753 
L 3109 2338 
L 1581 2338 
L 1581 384 
L 3775 384 
L 3775 1038 
L 4159 1038 
L 4159 0 
L 353 0 
z
" transform="scale(0.015625)"/>
      <path id="DejaVuSerif-78" d="M 1863 2028 
L 2559 2988 
L 2113 2988 
L 2113 3322 
L 3391 3322 
L 3391 2988 
L 2950 2988 
L 2059 1759 
L 3097 331 
L 3531 331 
L 3531 0 
L 1997 0 
L 1997 331 
L 2419 331 
L 1697 1325 
L 972 331 
L 1403 331 
L 1403 0 
L 141 0 
L 141 331 
L 581 331 
L 1497 1594 
L 488 2988 
L 78 2988 
L 78 3322 
L 1563 3322 
L 1563 2988 
L 1166 2988 
L 1863 2028 
z
" transform="scale(0.015625)"/>
      <path id="DejaVuSerif-70" d="M 1313 1825 
L 1313 1497 
Q 1313 897 1542 583 
Q 1772 269 2209 269 
Q 2650 269 2876 622 
Q 3103 975 3103 1663 
Q 3103 2353 2876 2703 
Q 2650 3053 2209 3053 
Q 1772 3053 1542 2737 
Q 1313 2422 1313 1825 
z
M 738 2988 
L 184 2988 
L 184 3322 
L 1313 3322 
L 1313 2803 
Q 1481 3116 1742 3264 
Q 2003 3413 2388 3413 
Q 3000 3413 3387 2928 
Q 3775 2444 3775 1663 
Q 3775 881 3387 395 
Q 3000 -91 2388 -91 
Q 2003 -91 1742 57 
Q 1481 206 1313 519 
L 1313 -997 
L 1856 -997 
L 1856 -1331 
L 184 -1331 
L 184 -997 
L 738 -997 
L 738 2988 
z
" transform="scale(0.015625)"/>
      <path id="DejaVuSerif-63" d="M 3291 997 
Q 3169 466 2822 187 
Q 2475 -91 1925 -91 
Q 1200 -91 759 389 
Q 319 869 319 1663 
Q 319 2459 759 2936 
Q 1200 3413 1925 3413 
Q 2241 3413 2553 3339 
Q 2866 3266 3181 3116 
L 3181 2266 
L 2847 2266 
Q 2781 2703 2561 2903 
Q 2341 3103 1931 3103 
Q 1466 3103 1228 2742 
Q 991 2381 991 1663 
Q 991 944 1227 581 
Q 1463 219 1931 219 
Q 2303 219 2525 412 
Q 2747 606 2828 997 
L 3291 997 
z
" transform="scale(0.015625)"/>
      <path id="DejaVuSerif-74" d="M 691 2988 
L 184 2988 
L 184 3322 
L 691 3322 
L 691 4353 
L 1269 4353 
L 1269 3322 
L 2350 3322 
L 2350 2988 
L 1269 2988 
L 1269 878 
Q 1269 456 1350 337 
Q 1431 219 1650 219 
Q 1875 219 1978 351 
Q 2081 484 2088 781 
L 2522 781 
Q 2497 328 2275 118 
Q 2053 -91 1600 -91 
Q 1103 -91 897 129 
Q 691 350 691 878 
L 691 2988 
z
" transform="scale(0.015625)"/>
      <path id="DejaVuSerif-61" d="M 2547 1044 
L 2547 1747 
L 1806 1747 
Q 1378 1747 1168 1562 
Q 959 1378 959 997 
Q 959 650 1171 447 
Q 1384 244 1747 244 
Q 2106 244 2326 466 
Q 2547 688 2547 1044 
z
M 3122 2075 
L 3122 331 
L 3634 331 
L 3634 0 
L 2547 0 
L 2547 359 
Q 2356 128 2106 18 
Q 1856 -91 1522 -91 
Q 969 -91 644 203 
Q 319 497 319 997 
Q 319 1513 691 1797 
Q 1063 2081 1741 2081 
L 2547 2081 
L 2547 2309 
Q 2547 2688 2317 2895 
Q 2088 3103 1672 3103 
Q 1328 3103 1125 2947 
Q 922 2791 872 2484 
L 575 2484 
L 575 3156 
Q 875 3284 1158 3348 
Q 1441 3413 1709 3413 
Q 2400 3413 2761 3070 
Q 3122 2728 3122 2075 
z
" transform="scale(0.015625)"/>
      <path id="DejaVuSerif-6f" d="M 1925 219 
Q 2388 219 2623 584 
Q 2859 950 2859 1663 
Q 2859 2375 2623 2739 
Q 2388 3103 1925 3103 
Q 1463 3103 1227 2739 
Q 991 2375 991 1663 
Q 991 950 1228 584 
Q 1466 219 1925 219 
z
M 1925 -91 
Q 1200 -91 759 389 
Q 319 869 319 1663 
Q 319 2456 758 2934 
Q 1197 3413 1925 3413 
Q 2653 3413 3092 2934 
Q 3531 2456 3531 1663 
Q 3531 869 3092 389 
Q 2653 -91 1925 -91 
z
" transform="scale(0.015625)"/>
      <path id="DejaVuSerif-6e" d="M 263 0 
L 263 331 
L 781 331 
L 781 2988 
L 231 2988 
L 231 3322 
L 1356 3322 
L 1356 2731 
Q 1516 3069 1770 3241 
Q 2025 3413 2363 3413 
Q 2913 3413 3172 3097 
Q 3431 2781 3431 2113 
L 3431 331 
L 3944 331 
L 3944 0 
L 2356 0 
L 2356 331 
L 2853 331 
L 2853 1931 
Q 2853 2541 2703 2767 
Q 2553 2994 2175 2994 
Q 1775 2994 1565 2701 
Q 1356 2409 1356 1850 
L 1356 331 
L 1856 331 
L 1856 0 
L 263 0 
z
" transform="scale(0.015625)"/>
      <path id="DejaVuSerif-76" d="M 1581 0 
L 359 2988 
L -19 2988 
L -19 3322 
L 1509 3322 
L 1509 2988 
L 978 2988 
L 1913 703 
L 2847 2988 
L 2350 2988 
L 2350 3322 
L 3597 3322 
L 3597 2988 
L 3225 2988 
L 2003 0 
L 1581 0 
z
" transform="scale(0.015625)"/>
      <path id="DejaVuSerif-6c" d="M 1313 331 
L 1856 331 
L 1856 0 
L 184 0 
L 184 331 
L 738 331 
L 738 4531 
L 184 4531 
L 184 4863 
L 1313 4863 
L 1313 331 
z
" transform="scale(0.015625)"/>
      <path id="DejaVuSerif-75" d="M 2266 3322 
L 3341 3322 
L 3341 331 
L 3884 331 
L 3884 0 
L 2766 0 
L 2766 588 
Q 2606 256 2353 82 
Q 2100 -91 1766 -91 
Q 1213 -91 952 223 
Q 691 538 691 1209 
L 691 2988 
L 172 2988 
L 172 3322 
L 1269 3322 
L 1269 1388 
Q 1269 781 1417 556 
Q 1566 331 1947 331 
Q 2347 331 2556 625 
Q 2766 919 2766 1478 
L 2766 2988 
L 2266 2988 
L 2266 3322 
z
" transform="scale(0.015625)"/>
     </defs>
     <use xlink:href="#DejaVuSans-Bold-41" transform="translate(0 0.015625)"/>
     <use xlink:href="#DejaVuSerif-20" transform="translate(77.392578 0.015625)"/>
     <use xlink:href="#DejaVuSerif-20" transform="translate(109.179688 0.015625)"/>
     <use xlink:href="#DejaVuSerif-45" transform="translate(140.966797 0.015625)"/>
     <use xlink:href="#DejaVuSerif-78" transform="translate(213.964844 0.015625)"/>
     <use xlink:href="#DejaVuSerif-70" transform="translate(270.361328 0.015625)"/>
     <use xlink:href="#DejaVuSerif-65" transform="translate(334.375 0.015625)"/>
     <use xlink:href="#DejaVuSerif-63" transform="translate(393.554688 0.015625)"/>
     <use xlink:href="#DejaVuSerif-74" transform="translate(449.560547 0.015625)"/>
     <use xlink:href="#DejaVuSerif-61" transform="translate(489.746094 0.015625)"/>
     <use xlink:href="#DejaVuSerif-74" transform="translate(549.365234 0.015625)"/>
     <use xlink:href="#DejaVuSerif-69" transform="translate(589.550781 0.015625)"/>
     <use xlink:href="#DejaVuSerif-6f" transform="translate(621.533203 0.015625)"/>
     <use xlink:href="#DejaVuSerif-6e" transform="translate(681.738281 0.015625)"/>
     <use xlink:href="#DejaVuSerif-20" transform="translate(746.142578 0.015625)"/>
     <use xlink:href="#DejaVuSerif-76" transform="translate(777.929688 0.015625)"/>
     <use xlink:href="#DejaVuSerif-61" transform="translate(834.423828 0.015625)"/>
     <use xlink:href="#DejaVuSerif-6c" transform="translate(894.042969 0.015625)"/>
     <use xlink:href="#DejaVuSerif-75" transform="translate(926.025391 0.015625)"/>
     <use xlink:href="#DejaVuSerif-65" transform="translate(990.429688 0.015625)"/>
    </g>
   </g>
  </g>
  <g id="axes_2">
   <g id="patch_7">
    <path d="M 416.182812 169.54875 
L 683.499375 169.54875 
L 683.499375 28.4 
L 416.182812 28.4 
z
" style="fill: #ffffff"/>
   </g>
   <g id="matplotlib.axis_3">
    <g id="xtick_7">
     <g id="line2d_18">
      <g>
       <use xlink:href="#md0a8c69001" x="428.333565" y="169.54875" style="stroke: #000000; stroke-width: 0.8"/>
      </g>
     </g>
     <g id="text_15">
      <!-- 0.0 -->
      <g transform="translate(417.201378 187.186562) scale(0.14 -0.14)">
       <use xlink:href="#DejaVuSerif-30"/>
       <use xlink:href="#DejaVuSerif-2e" transform="translate(63.623047 0)"/>
       <use xlink:href="#DejaVuSerif-30" transform="translate(95.410156 0)"/>
      </g>
     </g>
    </g>
    <g id="xtick_8">
     <g id="line2d_19">
      <g>
       <use xlink:href="#md0a8c69001" x="476.936577" y="169.54875" style="stroke: #000000; stroke-width: 0.8"/>
      </g>
     </g>
     <g id="text_16">
      <!-- 0.2 -->
      <g transform="translate(465.804389 187.186562) scale(0.14 -0.14)">
       <use xlink:href="#DejaVuSerif-30"/>
       <use xlink:href="#DejaVuSerif-2e" transform="translate(63.623047 0)"/>
       <use xlink:href="#DejaVuSerif-32" transform="translate(95.410156 0)"/>
      </g>
     </g>
    </g>
    <g id="xtick_9">
     <g id="line2d_20">
      <g>
       <use xlink:href="#md0a8c69001" x="525.539588" y="169.54875" style="stroke: #000000; stroke-width: 0.8"/>
      </g>
     </g>
     <g id="text_17">
      <!-- 0.4 -->
      <g transform="translate(514.407401 187.186562) scale(0.14 -0.14)">
       <use xlink:href="#DejaVuSerif-30"/>
       <use xlink:href="#DejaVuSerif-2e" transform="translate(63.623047 0)"/>
       <use xlink:href="#DejaVuSerif-34" transform="translate(95.410156 0)"/>
      </g>
     </g>
    </g>
    <g id="xtick_10">
     <g id="line2d_21">
      <g>
       <use xlink:href="#md0a8c69001" x="574.142599" y="169.54875" style="stroke: #000000; stroke-width: 0.8"/>
      </g>
     </g>
     <g id="text_18">
      <!-- 0.6 -->
      <g transform="translate(563.010412 187.186562) scale(0.14 -0.14)">
       <use xlink:href="#DejaVuSerif-30"/>
       <use xlink:href="#DejaVuSerif-2e" transform="translate(63.623047 0)"/>
       <use xlink:href="#DejaVuSerif-36" transform="translate(95.410156 0)"/>
      </g>
     </g>
    </g>
    <g id="xtick_11">
     <g id="line2d_22">
      <g>
       <use xlink:href="#md0a8c69001" x="622.745611" y="169.54875" style="stroke: #000000; stroke-width: 0.8"/>
      </g>
     </g>
     <g id="text_19">
      <!-- 0.8 -->
      <g transform="translate(611.613423 187.186562) scale(0.14 -0.14)">
       <use xlink:href="#DejaVuSerif-30"/>
       <use xlink:href="#DejaVuSerif-2e" transform="translate(63.623047 0)"/>
       <use xlink:href="#DejaVuSerif-38" transform="translate(95.410156 0)"/>
      </g>
     </g>
    </g>
    <g id="xtick_12">
     <g id="line2d_23">
      <g>
       <use xlink:href="#md0a8c69001" x="671.348622" y="169.54875" style="stroke: #000000; stroke-width: 0.8"/>
      </g>
     </g>
     <g id="text_20">
      <!-- 1.0 -->
      <g transform="translate(660.216435 187.186562) scale(0.14 -0.14)">
       <use xlink:href="#DejaVuSerif-31"/>
       <use xlink:href="#DejaVuSerif-2e" transform="translate(63.623047 0)"/>
       <use xlink:href="#DejaVuSerif-30" transform="translate(95.410156 0)"/>
      </g>
     </g>
    </g>
    <g id="text_21">
     <!-- Time -->
     <g transform="translate(529.624844 206.255625) scale(0.16 -0.16)">
      <use xlink:href="#DejaVuSerif-54"/>
      <use xlink:href="#DejaVuSerif-69" transform="translate(66.699219 0)"/>
      <use xlink:href="#DejaVuSerif-6d" transform="translate(98.681641 0)"/>
      <use xlink:href="#DejaVuSerif-65" transform="translate(193.505859 0)"/>
     </g>
    </g>
   </g>
   <g id="matplotlib.axis_4">
    <g id="ytick_6">
     <g id="line2d_24">
      <g>
       <use xlink:href="#m1237e21949" x="416.182812" y="163.132898" style="stroke: #000000; stroke-width: 0.8"/>
      </g>
     </g>
     <g id="text_22">
      <!-- 0 -->
      <g transform="translate(400.275312 168.451804) scale(0.14 -0.14)">
       <use xlink:href="#DejaVuSerif-30"/>
      </g>
     </g>
    </g>
    <g id="ytick_7">
     <g id="line2d_25">
      <g>
       <use xlink:href="#m1237e21949" x="416.182812" y="131.053636" style="stroke: #000000; stroke-width: 0.8"/>
      </g>
     </g>
     <g id="text_23">
      <!-- 10000 -->
      <g transform="translate(364.645312 136.372543) scale(0.14 -0.14)">
       <use xlink:href="#DejaVuSerif-31"/>
       <use xlink:href="#DejaVuSerif-30" transform="translate(63.623047 0)"/>
       <use xlink:href="#DejaVuSerif-30" transform="translate(127.246094 0)"/>
       <use xlink:href="#DejaVuSerif-30" transform="translate(190.869141 0)"/>
       <use xlink:href="#DejaVuSerif-30" transform="translate(254.492188 0)"/>
      </g>
     </g>
    </g>
    <g id="ytick_8">
     <g id="line2d_26">
      <g>
       <use xlink:href="#m1237e21949" x="416.182812" y="98.974375" style="stroke: #000000; stroke-width: 0.8"/>
      </g>
     </g>
     <g id="text_24">
      <!-- 20000 -->
      <g transform="translate(364.645312 104.293281) scale(0.14 -0.14)">
       <use xlink:href="#DejaVuSerif-32"/>
       <use xlink:href="#DejaVuSerif-30" transform="translate(63.623047 0)"/>
       <use xlink:href="#DejaVuSerif-30" transform="translate(127.246094 0)"/>
       <use xlink:href="#DejaVuSerif-30" transform="translate(190.869141 0)"/>
       <use xlink:href="#DejaVuSerif-30" transform="translate(254.492188 0)"/>
      </g>
     </g>
    </g>
    <g id="ytick_9">
     <g id="line2d_27">
      <g>
       <use xlink:href="#m1237e21949" x="416.182812" y="66.895114" style="stroke: #000000; stroke-width: 0.8"/>
      </g>
     </g>
     <g id="text_25">
      <!-- 30000 -->
      <g transform="translate(364.645312 72.21402) scale(0.14 -0.14)">
       <defs>
        <path id="DejaVuSerif-33" d="M 622 4469 
Q 988 4606 1323 4678 
Q 1659 4750 1953 4750 
Q 2638 4750 3022 4454 
Q 3406 4159 3406 3634 
Q 3406 3213 3140 2930 
Q 2875 2647 2388 2547 
Q 2963 2466 3280 2130 
Q 3597 1794 3597 1259 
Q 3597 606 3158 257 
Q 2719 -91 1894 -91 
Q 1528 -91 1179 -12 
Q 831 66 488 225 
L 488 1131 
L 838 1131 
Q 869 681 1141 450 
Q 1413 219 1906 219 
Q 2384 219 2661 495 
Q 2938 772 2938 1253 
Q 2938 1803 2653 2086 
Q 2369 2369 1819 2369 
L 1522 2369 
L 1522 2688 
L 1678 2688 
Q 2225 2688 2498 2914 
Q 2772 3141 2772 3597 
Q 2772 4006 2547 4223 
Q 2322 4441 1900 4441 
Q 1478 4441 1245 4241 
Q 1013 4041 972 3647 
L 622 3647 
L 622 4469 
z
" transform="scale(0.015625)"/>
       </defs>
       <use xlink:href="#DejaVuSerif-33"/>
       <use xlink:href="#DejaVuSerif-30" transform="translate(63.623047 0)"/>
       <use xlink:href="#DejaVuSerif-30" transform="translate(127.246094 0)"/>
       <use xlink:href="#DejaVuSerif-30" transform="translate(190.869141 0)"/>
       <use xlink:href="#DejaVuSerif-30" transform="translate(254.492188 0)"/>
      </g>
     </g>
    </g>
    <g id="ytick_10">
     <g id="line2d_28">
      <g>
       <use xlink:href="#m1237e21949" x="416.182812" y="34.815852" style="stroke: #000000; stroke-width: 0.8"/>
      </g>
     </g>
     <g id="text_26">
      <!-- 40000 -->
      <g transform="translate(364.645312 40.134759) scale(0.14 -0.14)">
       <use xlink:href="#DejaVuSerif-34"/>
       <use xlink:href="#DejaVuSerif-30" transform="translate(63.623047 0)"/>
       <use xlink:href="#DejaVuSerif-30" transform="translate(127.246094 0)"/>
       <use xlink:href="#DejaVuSerif-30" transform="translate(190.869141 0)"/>
       <use xlink:href="#DejaVuSerif-30" transform="translate(254.492188 0)"/>
      </g>
     </g>
    </g>
    <g id="text_27">
     <!-- Cumulative gate count -->
     <g transform="translate(357.090312 191.086875) rotate(-90) scale(0.16 -0.16)">
      <defs>
       <path id="DejaVuSerif-43" d="M 4513 1234 
Q 4306 581 3820 245 
Q 3334 -91 2591 -91 
Q 2134 -91 1743 65 
Q 1353 222 1050 525 
Q 700 875 529 1320 
Q 359 1766 359 2328 
Q 359 3416 987 4083 
Q 1616 4750 2644 4750 
Q 3025 4750 3456 4650 
Q 3888 4550 4384 4347 
L 4384 3272 
L 4031 3272 
Q 3916 3859 3567 4137 
Q 3219 4416 2591 4416 
Q 1844 4416 1459 3886 
Q 1075 3356 1075 2328 
Q 1075 1303 1459 773 
Q 1844 244 2591 244 
Q 3113 244 3450 492 
Q 3788 741 3938 1234 
L 4513 1234 
z
" transform="scale(0.015625)"/>
       <path id="DejaVuSerif-67" d="M 3359 2988 
L 3359 72 
Q 3359 -644 2965 -1033 
Q 2572 -1422 1844 -1422 
Q 1516 -1422 1216 -1362 
Q 916 -1303 641 -1184 
L 641 -488 
L 941 -488 
Q 997 -813 1206 -963 
Q 1416 -1113 1806 -1113 
Q 2313 -1113 2548 -827 
Q 2784 -541 2784 72 
L 2784 519 
Q 2616 206 2355 57 
Q 2094 -91 1709 -91 
Q 1097 -91 708 395 
Q 319 881 319 1663 
Q 319 2444 706 2928 
Q 1094 3413 1709 3413 
Q 2094 3413 2355 3264 
Q 2616 3116 2784 2803 
L 2784 3322 
L 3909 3322 
L 3909 2988 
L 3359 2988 
z
M 2784 1825 
Q 2784 2422 2554 2737 
Q 2325 3053 1888 3053 
Q 1444 3053 1217 2703 
Q 991 2353 991 1663 
Q 991 975 1217 622 
Q 1444 269 1888 269 
Q 2325 269 2554 583 
Q 2784 897 2784 1497 
L 2784 1825 
z
" transform="scale(0.015625)"/>
      </defs>
      <use xlink:href="#DejaVuSerif-43"/>
      <use xlink:href="#DejaVuSerif-75" transform="translate(76.513672 0)"/>
      <use xlink:href="#DejaVuSerif-6d" transform="translate(140.917969 0)"/>
      <use xlink:href="#DejaVuSerif-75" transform="translate(235.742188 0)"/>
      <use xlink:href="#DejaVuSerif-6c" transform="translate(300.146484 0)"/>
      <use xlink:href="#DejaVuSerif-61" transform="translate(332.128906 0)"/>
      <use xlink:href="#DejaVuSerif-74" transform="translate(391.748047 0)"/>
      <use xlink:href="#DejaVuSerif-69" transform="translate(431.933594 0)"/>
      <use xlink:href="#DejaVuSerif-76" transform="translate(463.916016 0)"/>
      <use xlink:href="#DejaVuSerif-65" transform="translate(520.410156 0)"/>
      <use xlink:href="#DejaVuSerif-20" transform="translate(579.589844 0)"/>
      <use xlink:href="#DejaVuSerif-67" transform="translate(611.376953 0)"/>
      <use xlink:href="#DejaVuSerif-61" transform="translate(675.390625 0)"/>
      <use xlink:href="#DejaVuSerif-74" transform="translate(735.009766 0)"/>
      <use xlink:href="#DejaVuSerif-65" transform="translate(775.195312 0)"/>
      <use xlink:href="#DejaVuSerif-20" transform="translate(834.375 0)"/>
      <use xlink:href="#DejaVuSerif-63" transform="translate(866.162109 0)"/>
      <use xlink:href="#DejaVuSerif-6f" transform="translate(922.167969 0)"/>
      <use xlink:href="#DejaVuSerif-75" transform="translate(982.373047 0)"/>
      <use xlink:href="#DejaVuSerif-6e" transform="translate(1046.777344 0)"/>
      <use xlink:href="#DejaVuSerif-74" transform="translate(1111.181641 0)"/>
     </g>
    </g>
   </g>
   <g id="line2d_29">
    <path d="M 428.333565 163.132898 
L 452.635071 150.301193 
L 476.936577 137.469489 
L 501.238082 124.637784 
L 525.539588 111.80608 
L 549.841094 98.974375 
L 574.142599 86.14267 
L 598.444105 73.310966 
L 622.745611 60.479261 
L 647.047116 47.647557 
L 671.348622 34.815852 
" clip-path="url(#p4e3a8cf3d1)" style="fill: none; stroke: #000000; stroke-width: 2; stroke-linecap: square"/>
   </g>
   <g id="line2d_30">
    <path d="M 428.333565 163.132898 
L 452.635071 162.902344 
L 476.936577 162.675961 
L 501.238082 162.444894 
L 525.539588 162.215816 
L 549.841094 161.988663 
L 574.142599 161.761798 
L 598.444105 161.538109 
L 622.745611 161.311213 
L 647.047116 161.079953 
L 671.348622 160.853602 
" clip-path="url(#p4e3a8cf3d1)" style="fill: none; stroke: #1f77b4; stroke-width: 2; stroke-linecap: square"/>
   </g>
   <g id="line2d_31">
    <path d="M 428.333565 163.132898 
L 452.635071 162.670571 
L 476.936577 162.218767 
L 501.238082 161.757788 
L 525.539588 161.299472 
L 549.841094 160.846416 
L 574.142599 160.393457 
L 598.444105 159.940434 
L 622.745611 159.480802 
L 647.047116 159.017706 
L 671.348622 158.564201 
" clip-path="url(#p4e3a8cf3d1)" style="fill: none; stroke: #ff7f0e; stroke-width: 2; stroke-linecap: square"/>
   </g>
   <g id="line2d_32">
    <path d="M 428.333565 163.132898 
L 452.635071 162.214565 
L 476.936577 161.304412 
L 501.238082 160.38579 
L 525.539588 159.472205 
L 549.841094 158.569687 
L 574.142599 157.663672 
L 598.444105 156.754514 
L 622.745611 155.844297 
L 647.047116 154.927087 
L 671.348622 154.017736 
" clip-path="url(#p4e3a8cf3d1)" style="fill: none; stroke: #2ca02c; stroke-width: 2; stroke-linecap: square"/>
   </g>
   <g id="line2d_33">
    <path d="M 428.333565 163.132898 
L 452.635071 161.311181 
L 476.936577 159.49142 
L 501.238082 157.67567 
L 525.539588 155.849141 
L 549.841094 154.037144 
L 574.142599 152.213534 
L 598.444105 150.403237 
L 622.745611 148.580911 
L 647.047116 146.754253 
L 671.348622 144.934204 
" clip-path="url(#p4e3a8cf3d1)" style="fill: none; stroke: #d62728; stroke-width: 2; stroke-linecap: square"/>
   </g>
   <g id="line2d_34">
    <path d="M 428.333565 163.132898 
L 452.635071 159.497772 
L 476.936577 155.867715 
L 501.238082 152.230087 
L 525.539588 148.595378 
L 549.841094 144.963461 
L 574.142599 141.322176 
L 598.444105 137.689937 
L 622.745611 134.056544 
L 647.047116 130.408522 
L 671.348622 126.768489 
" clip-path="url(#p4e3a8cf3d1)" style="fill: none; stroke: #9467bd; stroke-width: 2; stroke-linecap: square"/>
   </g>
   <g id="patch_8">
    <path d="M 416.182812 169.54875 
L 416.182812 28.4 
" style="fill: none; stroke: #000000; stroke-width: 0.8; stroke-linejoin: miter; stroke-linecap: square"/>
   </g>
   <g id="patch_9">
    <path d="M 683.499375 169.54875 
L 683.499375 28.4 
" style="fill: none; stroke: #000000; stroke-width: 0.8; stroke-linejoin: miter; stroke-linecap: square"/>
   </g>
   <g id="patch_10">
    <path d="M 416.182812 169.54875 
L 683.499375 169.54875 
" style="fill: none; stroke: #000000; stroke-width: 0.8; stroke-linejoin: miter; stroke-linecap: square"/>
   </g>
   <g id="patch_11">
    <path d="M 416.182812 28.4 
L 683.499375 28.4 
" style="fill: none; stroke: #000000; stroke-width: 0.8; stroke-linejoin: miter; stroke-linecap: square"/>
   </g>
   <g id="text_28">
    <!-- $\bf{B}$  Gate count -->
    <g transform="translate(416.182812 22.4) scale(0.2 -0.2)">
     <defs>
      <path id="DejaVuSans-Bold-42" d="M 2456 2859 
Q 2741 2859 2887 2984 
Q 3034 3109 3034 3353 
Q 3034 3594 2887 3720 
Q 2741 3847 2456 3847 
L 1791 3847 
L 1791 2859 
L 2456 2859 
z
M 2497 819 
Q 2859 819 3042 972 
Q 3225 1125 3225 1434 
Q 3225 1738 3044 1889 
Q 2863 2041 2497 2041 
L 1791 2041 
L 1791 819 
L 2497 819 
z
M 3616 2497 
Q 4003 2384 4215 2081 
Q 4428 1778 4428 1338 
Q 4428 663 3972 331 
Q 3516 0 2584 0 
L 588 0 
L 588 4666 
L 2394 4666 
Q 3366 4666 3802 4372 
Q 4238 4078 4238 3431 
Q 4238 3091 4078 2852 
Q 3919 2613 3616 2497 
z
" transform="scale(0.015625)"/>
      <path id="DejaVuSerif-47" d="M 4097 3272 
Q 3988 3856 3641 4136 
Q 3294 4416 2675 4416 
Q 1869 4416 1472 3897 
Q 1075 3378 1075 2328 
Q 1075 1300 1484 772 
Q 1894 244 2688 244 
Q 3041 244 3362 331 
Q 3684 419 3975 594 
L 3975 1797 
L 3097 1797 
L 3097 2131 
L 4609 2131 
L 4609 391 
Q 4194 150 3714 29 
Q 3234 -91 2688 -91 
Q 1631 -91 995 570 
Q 359 1231 359 2328 
Q 359 3434 996 4092 
Q 1634 4750 2713 4750 
Q 3113 4750 3539 4658 
Q 3966 4566 4447 4378 
L 4447 3272 
L 4097 3272 
z
" transform="scale(0.015625)"/>
     </defs>
     <use xlink:href="#DejaVuSans-Bold-42" transform="translate(0 0.78125)"/>
     <use xlink:href="#DejaVuSerif-20" transform="translate(76.220703 0.78125)"/>
     <use xlink:href="#DejaVuSerif-20" transform="translate(108.007812 0.78125)"/>
     <use xlink:href="#DejaVuSerif-47" transform="translate(139.794922 0.78125)"/>
     <use xlink:href="#DejaVuSerif-61" transform="translate(219.677734 0.78125)"/>
     <use xlink:href="#DejaVuSerif-74" transform="translate(279.296875 0.78125)"/>
     <use xlink:href="#DejaVuSerif-65" transform="translate(319.482422 0.78125)"/>
     <use xlink:href="#DejaVuSerif-20" transform="translate(378.662109 0.78125)"/>
     <use xlink:href="#DejaVuSerif-63" transform="translate(410.449219 0.78125)"/>
     <use xlink:href="#DejaVuSerif-6f" transform="translate(466.455078 0.78125)"/>
     <use xlink:href="#DejaVuSerif-75" transform="translate(526.660156 0.78125)"/>
     <use xlink:href="#DejaVuSerif-6e" transform="translate(591.064453 0.78125)"/>
     <use xlink:href="#DejaVuSerif-74" transform="translate(655.46875 0.78125)"/>
    </g>
   </g>
  </g>
  <g id="axes_3">
   <g id="patch_12">
    <path d="M 55.949375 406.978125 
L 323.265938 406.978125 
L 323.265938 265.829375 
L 55.949375 265.829375 
z
" style="fill: #ffffff"/>
   </g>
   <g id="matplotlib.axis_5">
    <g id="xtick_13">
     <g id="line2d_35">
      <g>
       <use xlink:href="#md0a8c69001" x="68.100128" y="406.978125" style="stroke: #000000; stroke-width: 0.8"/>
      </g>
     </g>
     <g id="text_29">
      <!-- 0.0 -->
      <g transform="translate(56.96794 424.615937) scale(0.14 -0.14)">
       <use xlink:href="#DejaVuSerif-30"/>
       <use xlink:href="#DejaVuSerif-2e" transform="translate(63.623047 0)"/>
       <use xlink:href="#DejaVuSerif-30" transform="translate(95.410156 0)"/>
      </g>
     </g>
    </g>
    <g id="xtick_14">
     <g id="line2d_36">
      <g>
       <use xlink:href="#md0a8c69001" x="116.703139" y="406.978125" style="stroke: #000000; stroke-width: 0.8"/>
      </g>
     </g>
     <g id="text_30">
      <!-- 0.2 -->
      <g transform="translate(105.570952 424.615937) scale(0.14 -0.14)">
       <use xlink:href="#DejaVuSerif-30"/>
       <use xlink:href="#DejaVuSerif-2e" transform="translate(63.623047 0)"/>
       <use xlink:href="#DejaVuSerif-32" transform="translate(95.410156 0)"/>
      </g>
     </g>
    </g>
    <g id="xtick_15">
     <g id="line2d_37">
      <g>
       <use xlink:href="#md0a8c69001" x="165.306151" y="406.978125" style="stroke: #000000; stroke-width: 0.8"/>
      </g>
     </g>
     <g id="text_31">
      <!-- 0.4 -->
      <g transform="translate(154.173963 424.615937) scale(0.14 -0.14)">
       <use xlink:href="#DejaVuSerif-30"/>
       <use xlink:href="#DejaVuSerif-2e" transform="translate(63.623047 0)"/>
       <use xlink:href="#DejaVuSerif-34" transform="translate(95.410156 0)"/>
      </g>
     </g>
    </g>
    <g id="xtick_16">
     <g id="line2d_38">
      <g>
       <use xlink:href="#md0a8c69001" x="213.909162" y="406.978125" style="stroke: #000000; stroke-width: 0.8"/>
      </g>
     </g>
     <g id="text_32">
      <!-- 0.6 -->
      <g transform="translate(202.776974 424.615937) scale(0.14 -0.14)">
       <use xlink:href="#DejaVuSerif-30"/>
       <use xlink:href="#DejaVuSerif-2e" transform="translate(63.623047 0)"/>
       <use xlink:href="#DejaVuSerif-36" transform="translate(95.410156 0)"/>
      </g>
     </g>
    </g>
    <g id="xtick_17">
     <g id="line2d_39">
      <g>
       <use xlink:href="#md0a8c69001" x="262.512173" y="406.978125" style="stroke: #000000; stroke-width: 0.8"/>
      </g>
     </g>
     <g id="text_33">
      <!-- 0.8 -->
      <g transform="translate(251.379986 424.615937) scale(0.14 -0.14)">
       <use xlink:href="#DejaVuSerif-30"/>
       <use xlink:href="#DejaVuSerif-2e" transform="translate(63.623047 0)"/>
       <use xlink:href="#DejaVuSerif-38" transform="translate(95.410156 0)"/>
      </g>
     </g>
    </g>
    <g id="xtick_18">
     <g id="line2d_40">
      <g>
       <use xlink:href="#md0a8c69001" x="311.115185" y="406.978125" style="stroke: #000000; stroke-width: 0.8"/>
      </g>
     </g>
     <g id="text_34">
      <!-- 1.0 -->
      <g transform="translate(299.982997 424.615937) scale(0.14 -0.14)">
       <use xlink:href="#DejaVuSerif-31"/>
       <use xlink:href="#DejaVuSerif-2e" transform="translate(63.623047 0)"/>
       <use xlink:href="#DejaVuSerif-30" transform="translate(95.410156 0)"/>
      </g>
     </g>
    </g>
    <g id="text_35">
     <!-- Time -->
     <g transform="translate(169.391406 443.685) scale(0.16 -0.16)">
      <use xlink:href="#DejaVuSerif-54"/>
      <use xlink:href="#DejaVuSerif-69" transform="translate(66.699219 0)"/>
      <use xlink:href="#DejaVuSerif-6d" transform="translate(98.681641 0)"/>
      <use xlink:href="#DejaVuSerif-65" transform="translate(193.505859 0)"/>
     </g>
    </g>
   </g>
   <g id="matplotlib.axis_6">
    <g id="ytick_11">
     <g id="line2d_41">
      <g>
       <use xlink:href="#m1237e21949" x="55.949375" y="363.097442" style="stroke: #000000; stroke-width: 0.8"/>
      </g>
     </g>
     <g id="text_36">
      <!-- 5 -->
      <g transform="translate(40.041875 368.416348) scale(0.14 -0.14)">
       <defs>
        <path id="DejaVuSerif-35" d="M 3219 4666 
L 3219 4153 
L 1081 4153 
L 1081 2816 
Q 1244 2928 1461 2984 
Q 1678 3041 1947 3041 
Q 2703 3041 3140 2622 
Q 3578 2203 3578 1478 
Q 3578 738 3136 323 
Q 2694 -91 1894 -91 
Q 1572 -91 1234 -12 
Q 897 66 544 225 
L 544 1131 
L 897 1131 
Q 925 688 1179 453 
Q 1434 219 1894 219 
Q 2388 219 2653 544 
Q 2919 869 2919 1478 
Q 2919 2084 2655 2407 
Q 2391 2731 1894 2731 
Q 1613 2731 1398 2631 
Q 1184 2531 1019 2322 
L 750 2322 
L 750 4666 
L 3219 4666 
z
" transform="scale(0.015625)"/>
       </defs>
       <use xlink:href="#DejaVuSerif-35"/>
      </g>
     </g>
    </g>
    <g id="ytick_12">
     <g id="line2d_42">
      <g>
       <use xlink:href="#m1237e21949" x="55.949375" y="316.266403" style="stroke: #000000; stroke-width: 0.8"/>
      </g>
     </g>
     <g id="text_37">
      <!-- 10 -->
      <g transform="translate(31.134375 321.58531) scale(0.14 -0.14)">
       <use xlink:href="#DejaVuSerif-31"/>
       <use xlink:href="#DejaVuSerif-30" transform="translate(63.623047 0)"/>
      </g>
     </g>
    </g>
    <g id="ytick_13">
     <g id="line2d_43">
      <g>
       <use xlink:href="#m1237e21949" x="55.949375" y="269.435365" style="stroke: #000000; stroke-width: 0.8"/>
      </g>
     </g>
     <g id="text_38">
      <!-- 15 -->
      <g transform="translate(31.134375 274.754271) scale(0.14 -0.14)">
       <use xlink:href="#DejaVuSerif-31"/>
       <use xlink:href="#DejaVuSerif-35" transform="translate(63.623047 0)"/>
      </g>
     </g>
    </g>
    <g id="text_39">
     <!-- Max bond dimension $\chi$ -->
     <g transform="translate(23.774375 428.24375) rotate(-90) scale(0.16 -0.16)">
      <defs>
       <path id="DejaVuSerif-4d" d="M 353 0 
L 353 331 
L 947 331 
L 947 4331 
L 319 4331 
L 319 4666 
L 1678 4666 
L 3316 1344 
L 4953 4666 
L 6228 4666 
L 6228 4331 
L 5606 4331 
L 5606 331 
L 6203 331 
L 6203 0 
L 4378 0 
L 4378 331 
L 4972 331 
L 4972 3938 
L 3372 684 
L 2931 684 
L 1331 3938 
L 1331 331 
L 1925 331 
L 1925 0 
L 353 0 
z
" transform="scale(0.015625)"/>
       <path id="DejaVuSerif-62" d="M 738 331 
L 738 4531 
L 184 4531 
L 184 4863 
L 1313 4863 
L 1313 2803 
Q 1481 3116 1742 3264 
Q 2003 3413 2388 3413 
Q 3000 3413 3387 2928 
Q 3775 2444 3775 1663 
Q 3775 881 3387 395 
Q 3000 -91 2388 -91 
Q 2003 -91 1742 57 
Q 1481 206 1313 519 
L 1313 0 
L 184 0 
L 184 331 
L 738 331 
z
M 1313 1497 
Q 1313 897 1542 583 
Q 1772 269 2209 269 
Q 2650 269 2876 622 
Q 3103 975 3103 1663 
Q 3103 2353 2876 2703 
Q 2650 3053 2209 3053 
Q 1772 3053 1542 2737 
Q 1313 2422 1313 1825 
L 1313 1497 
z
" transform="scale(0.015625)"/>
       <path id="DejaVuSerif-64" d="M 3359 331 
L 3909 331 
L 3909 0 
L 2784 0 
L 2784 519 
Q 2616 206 2355 57 
Q 2094 -91 1709 -91 
Q 1097 -91 708 395 
Q 319 881 319 1663 
Q 319 2444 706 2928 
Q 1094 3413 1709 3413 
Q 2094 3413 2355 3264 
Q 2616 3116 2784 2803 
L 2784 4531 
L 2241 4531 
L 2241 4863 
L 3359 4863 
L 3359 331 
z
M 2784 1497 
L 2784 1825 
Q 2784 2422 2554 2737 
Q 2325 3053 1888 3053 
Q 1444 3053 1217 2703 
Q 991 2353 991 1663 
Q 991 975 1217 622 
Q 1444 269 1888 269 
Q 2325 269 2554 583 
Q 2784 897 2784 1497 
z
" transform="scale(0.015625)"/>
       <path id="DejaVuSerif-73" d="M 359 184 
L 359 959 
L 691 959 
Q 703 588 923 403 
Q 1144 219 1575 219 
Q 1963 219 2166 364 
Q 2369 509 2369 788 
Q 2369 1006 2220 1140 
Q 2072 1275 1594 1428 
L 1178 1569 
Q 750 1706 558 1912 
Q 366 2119 366 2438 
Q 366 2894 700 3153 
Q 1034 3413 1625 3413 
Q 1888 3413 2178 3344 
Q 2469 3275 2778 3144 
L 2778 2419 
L 2447 2419 
Q 2434 2741 2221 2922 
Q 2009 3103 1644 3103 
Q 1281 3103 1095 2975 
Q 909 2847 909 2591 
Q 909 2381 1050 2254 
Q 1191 2128 1613 1997 
L 2069 1856 
Q 2541 1709 2748 1489 
Q 2956 1269 2956 922 
Q 2956 450 2595 179 
Q 2234 -91 1600 -91 
Q 1278 -91 972 -22 
Q 666 47 359 184 
z
" transform="scale(0.015625)"/>
       <path id="DejaVuSans-Oblique-3c7" d="M 1922 -781 
L 1691 416 
L 394 -1334 
L -284 -1334 
L 1553 1141 
L 1269 2613 
Q 1194 3006 713 3006 
L 559 3006 
L 653 3500 
L 872 3494 
Q 1675 3472 1775 2950 
L 2006 1753 
L 3303 3503 
L 3981 3503 
L 2144 1028 
L 2428 -444 
Q 2503 -838 2984 -838 
L 3138 -838 
L 3044 -1331 
L 2825 -1325 
Q 2022 -1303 1922 -781 
z
" transform="scale(0.015625)"/>
      </defs>
      <use xlink:href="#DejaVuSerif-4d" transform="translate(0 0.015625)"/>
      <use xlink:href="#DejaVuSerif-61" transform="translate(102.392578 0.015625)"/>
      <use xlink:href="#DejaVuSerif-78" transform="translate(162.011719 0.015625)"/>
      <use xlink:href="#DejaVuSerif-20" transform="translate(218.408203 0.015625)"/>
      <use xlink:href="#DejaVuSerif-62" transform="translate(250.195312 0.015625)"/>
      <use xlink:href="#DejaVuSerif-6f" transform="translate(314.208984 0.015625)"/>
      <use xlink:href="#DejaVuSerif-6e" transform="translate(374.414062 0.015625)"/>
      <use xlink:href="#DejaVuSerif-64" transform="translate(438.818359 0.015625)"/>
      <use xlink:href="#DejaVuSerif-20" transform="translate(502.832031 0.015625)"/>
      <use xlink:href="#DejaVuSerif-64" transform="translate(534.619141 0.015625)"/>
      <use xlink:href="#DejaVuSerif-69" transform="translate(598.632812 0.015625)"/>
      <use xlink:href="#DejaVuSerif-6d" transform="translate(630.615234 0.015625)"/>
      <use xlink:href="#DejaVuSerif-65" transform="translate(725.439453 0.015625)"/>
      <use xlink:href="#DejaVuSerif-6e" transform="translate(784.619141 0.015625)"/>
      <use xlink:href="#DejaVuSerif-73" transform="translate(849.023438 0.015625)"/>
      <use xlink:href="#DejaVuSerif-69" transform="translate(900.341797 0.015625)"/>
      <use xlink:href="#DejaVuSerif-6f" transform="translate(932.324219 0.015625)"/>
      <use xlink:href="#DejaVuSerif-6e" transform="translate(992.529297 0.015625)"/>
      <use xlink:href="#DejaVuSerif-20" transform="translate(1056.933594 0.015625)"/>
      <use xlink:href="#DejaVuSans-Oblique-3c7" transform="translate(1088.720703 0.015625)"/>
     </g>
    </g>
   </g>
   <g id="line2d_44">
    <path d="M 68.100128 400.562273 
L 92.401634 381.829857 
L 116.703139 372.46365 
L 141.004645 372.46365 
L 165.306151 372.46365 
L 189.607656 372.46365 
L 213.909162 363.097442 
L 238.210668 353.731234 
L 262.512173 334.998819 
L 286.813679 334.998819 
L 311.115185 334.998819 
" clip-path="url(#p8910856770)" style="fill: none; stroke: #000000; stroke-width: 2; stroke-linecap: square"/>
   </g>
   <g id="line2d_45">
    <path d="M 68.100128 400.562273 
L 92.401634 363.846739 
L 116.703139 340.431219 
L 141.004645 324.976977 
L 165.306151 313.081893 
L 189.607656 304.83963 
L 213.909162 297.721312 
L 238.210668 292.101588 
L 262.512173 285.919891 
L 286.813679 278.520586 
L 311.115185 272.245227 
" clip-path="url(#p8910856770)" style="fill: none; stroke: #1f77b4; stroke-width: 2; stroke-linecap: square"/>
   </g>
   <g id="line2d_46">
    <path d="M 68.100128 400.562273 
L 92.401634 354.293207 
L 116.703139 337.153047 
L 141.004645 327.131204 
L 165.306151 318.79528 
L 189.607656 311.676962 
L 213.909162 305.214278 
L 238.210668 298.845257 
L 262.512173 293.787505 
L 286.813679 288.448767 
L 311.115185 283.297352 
" clip-path="url(#p8910856770)" style="fill: none; stroke: #ff7f0e; stroke-width: 2; stroke-linecap: square"/>
   </g>
   <g id="line2d_47">
    <path d="M 68.100128 400.562273 
L 92.401634 355.510814 
L 116.703139 339.400936 
L 141.004645 333.312901 
L 165.306151 325.913597 
L 189.607656 320.293873 
L 213.909162 315.236121 
L 238.210668 308.492451 
L 262.512173 301.374133 
L 286.813679 296.691029 
L 311.115185 293.974829 
" clip-path="url(#p8910856770)" style="fill: none; stroke: #2ca02c; stroke-width: 2; stroke-linecap: square"/>
   </g>
   <g id="line2d_48">
    <path d="M 68.100128 400.562273 
L 92.401634 361.879835 
L 116.703139 347.736861 
L 141.004645 340.243895 
L 165.306151 334.343184 
L 189.607656 329.753743 
L 213.909162 325.819935 
L 238.210668 320.481197 
L 262.512173 313.924852 
L 286.813679 305.30794 
L 311.115185 299.032581 
" clip-path="url(#p8910856770)" style="fill: none; stroke: #d62728; stroke-width: 2; stroke-linecap: square"/>
   </g>
   <g id="line2d_49">
    <path d="M 68.100128 400.562273 
L 92.401634 364.127725 
L 116.703139 355.698138 
L 141.004645 346.706578 
L 165.306151 340.337557 
L 189.607656 337.153047 
L 213.909162 332.938253 
L 238.210668 327.786839 
L 262.512173 321.605142 
L 286.813679 314.861472 
L 311.115185 308.117803 
" clip-path="url(#p8910856770)" style="fill: none; stroke: #9467bd; stroke-width: 2; stroke-linecap: square"/>
   </g>
   <g id="patch_13">
    <path d="M 55.949375 406.978125 
L 55.949375 265.829375 
" style="fill: none; stroke: #000000; stroke-width: 0.8; stroke-linejoin: miter; stroke-linecap: square"/>
   </g>
   <g id="patch_14">
    <path d="M 323.265938 406.978125 
L 323.265938 265.829375 
" style="fill: none; stroke: #000000; stroke-width: 0.8; stroke-linejoin: miter; stroke-linecap: square"/>
   </g>
   <g id="patch_15">
    <path d="M 55.949375 406.978125 
L 323.265938 406.978125 
" style="fill: none; stroke: #000000; stroke-width: 0.8; stroke-linejoin: miter; stroke-linecap: square"/>
   </g>
   <g id="patch_16">
    <path d="M 55.949375 265.829375 
L 323.265938 265.829375 
" style="fill: none; stroke: #000000; stroke-width: 0.8; stroke-linejoin: miter; stroke-linecap: square"/>
   </g>
   <g id="text_40">
    <!-- $\bf{C}$  Bond dimension -->
    <g transform="translate(55.949375 259.829375) scale(0.2 -0.2)">
     <defs>
      <path id="DejaVuSans-Bold-43" d="M 4288 256 
Q 3956 84 3597 -3 
Q 3238 -91 2847 -91 
Q 1681 -91 1000 561 
Q 319 1213 319 2328 
Q 319 3447 1000 4098 
Q 1681 4750 2847 4750 
Q 3238 4750 3597 4662 
Q 3956 4575 4288 4403 
L 4288 3438 
Q 3953 3666 3628 3772 
Q 3303 3878 2944 3878 
Q 2300 3878 1931 3465 
Q 1563 3053 1563 2328 
Q 1563 1606 1931 1193 
Q 2300 781 2944 781 
Q 3303 781 3628 887 
Q 3953 994 4288 1222 
L 4288 256 
z
" transform="scale(0.015625)"/>
      <path id="DejaVuSerif-42" d="M 1581 331 
L 2516 331 
Q 3078 331 3337 575 
Q 3597 819 3597 1350 
Q 3597 1878 3339 2120 
Q 3081 2363 2516 2363 
L 1581 2363 
L 1581 331 
z
M 1581 2694 
L 2375 2694 
Q 2888 2694 3123 2891 
Q 3359 3088 3359 3513 
Q 3359 3941 3123 4136 
Q 2888 4331 2375 4331 
L 1581 4331 
L 1581 2694 
z
M 353 0 
L 353 331 
L 947 331 
L 947 4331 
L 353 4331 
L 353 4666 
L 2656 4666 
Q 3363 4666 3720 4377 
Q 4078 4088 4078 3513 
Q 4078 3097 3829 2850 
Q 3581 2603 3103 2547 
Q 3697 2472 4005 2167 
Q 4313 1863 4313 1350 
Q 4313 656 3875 328 
Q 3438 0 2509 0 
L 353 0 
z
" transform="scale(0.015625)"/>
     </defs>
     <use xlink:href="#DejaVuSans-Bold-43" transform="translate(0 0.015625)"/>
     <use xlink:href="#DejaVuSerif-20" transform="translate(73.388672 0.015625)"/>
     <use xlink:href="#DejaVuSerif-20" transform="translate(105.175781 0.015625)"/>
     <use xlink:href="#DejaVuSerif-42" transform="translate(136.962891 0.015625)"/>
     <use xlink:href="#DejaVuSerif-6f" transform="translate(210.449219 0.015625)"/>
     <use xlink:href="#DejaVuSerif-6e" transform="translate(270.654297 0.015625)"/>
     <use xlink:href="#DejaVuSerif-64" transform="translate(335.058594 0.015625)"/>
     <use xlink:href="#DejaVuSerif-20" transform="translate(399.072266 0.015625)"/>
     <use xlink:href="#DejaVuSerif-64" transform="translate(430.859375 0.015625)"/>
     <use xlink:href="#DejaVuSerif-69" transform="translate(494.873047 0.015625)"/>
     <use xlink:href="#DejaVuSerif-6d" transform="translate(526.855469 0.015625)"/>
     <use xlink:href="#DejaVuSerif-65" transform="translate(621.679688 0.015625)"/>
     <use xlink:href="#DejaVuSerif-6e" transform="translate(680.859375 0.015625)"/>
     <use xlink:href="#DejaVuSerif-73" transform="translate(745.263672 0.015625)"/>
     <use xlink:href="#DejaVuSerif-69" transform="translate(796.582031 0.015625)"/>
     <use xlink:href="#DejaVuSerif-6f" transform="translate(828.564453 0.015625)"/>
     <use xlink:href="#DejaVuSerif-6e" transform="translate(888.769531 0.015625)"/>
    </g>
   </g>
  </g>
  <g id="axes_4">
   <g id="patch_17">
    <path d="M 416.182812 406.978125 
L 683.499375 406.978125 
L 683.499375 265.829375 
L 416.182812 265.829375 
z
" style="fill: #ffffff"/>
   </g>
   <g id="matplotlib.axis_7">
    <g id="xtick_19">
     <g id="line2d_50">
      <g>
       <use xlink:href="#md0a8c69001" x="428.333565" y="406.978125" style="stroke: #000000; stroke-width: 0.8"/>
      </g>
     </g>
     <g id="text_41">
      <!-- 0.0 -->
      <g transform="translate(417.201378 424.615937) scale(0.14 -0.14)">
       <use xlink:href="#DejaVuSerif-30"/>
       <use xlink:href="#DejaVuSerif-2e" transform="translate(63.623047 0)"/>
       <use xlink:href="#DejaVuSerif-30" transform="translate(95.410156 0)"/>
      </g>
     </g>
    </g>
    <g id="xtick_20">
     <g id="line2d_51">
      <g>
       <use xlink:href="#md0a8c69001" x="476.936577" y="406.978125" style="stroke: #000000; stroke-width: 0.8"/>
      </g>
     </g>
     <g id="text_42">
      <!-- 0.2 -->
      <g transform="translate(465.804389 424.615937) scale(0.14 -0.14)">
       <use xlink:href="#DejaVuSerif-30"/>
       <use xlink:href="#DejaVuSerif-2e" transform="translate(63.623047 0)"/>
       <use xlink:href="#DejaVuSerif-32" transform="translate(95.410156 0)"/>
      </g>
     </g>
    </g>
    <g id="xtick_21">
     <g id="line2d_52">
      <g>
       <use xlink:href="#md0a8c69001" x="525.539588" y="406.978125" style="stroke: #000000; stroke-width: 0.8"/>
      </g>
     </g>
     <g id="text_43">
      <!-- 0.4 -->
      <g transform="translate(514.407401 424.615937) scale(0.14 -0.14)">
       <use xlink:href="#DejaVuSerif-30"/>
       <use xlink:href="#DejaVuSerif-2e" transform="translate(63.623047 0)"/>
       <use xlink:href="#DejaVuSerif-34" transform="translate(95.410156 0)"/>
      </g>
     </g>
    </g>
    <g id="xtick_22">
     <g id="line2d_53">
      <g>
       <use xlink:href="#md0a8c69001" x="574.142599" y="406.978125" style="stroke: #000000; stroke-width: 0.8"/>
      </g>
     </g>
     <g id="text_44">
      <!-- 0.6 -->
      <g transform="translate(563.010412 424.615937) scale(0.14 -0.14)">
       <use xlink:href="#DejaVuSerif-30"/>
       <use xlink:href="#DejaVuSerif-2e" transform="translate(63.623047 0)"/>
       <use xlink:href="#DejaVuSerif-36" transform="translate(95.410156 0)"/>
      </g>
     </g>
    </g>
    <g id="xtick_23">
     <g id="line2d_54">
      <g>
       <use xlink:href="#md0a8c69001" x="622.745611" y="406.978125" style="stroke: #000000; stroke-width: 0.8"/>
      </g>
     </g>
     <g id="text_45">
      <!-- 0.8 -->
      <g transform="translate(611.613423 424.615937) scale(0.14 -0.14)">
       <use xlink:href="#DejaVuSerif-30"/>
       <use xlink:href="#DejaVuSerif-2e" transform="translate(63.623047 0)"/>
       <use xlink:href="#DejaVuSerif-38" transform="translate(95.410156 0)"/>
      </g>
     </g>
    </g>
    <g id="xtick_24">
     <g id="line2d_55">
      <g>
       <use xlink:href="#md0a8c69001" x="671.348622" y="406.978125" style="stroke: #000000; stroke-width: 0.8"/>
      </g>
     </g>
     <g id="text_46">
      <!-- 1.0 -->
      <g transform="translate(660.216435 424.615937) scale(0.14 -0.14)">
       <use xlink:href="#DejaVuSerif-31"/>
       <use xlink:href="#DejaVuSerif-2e" transform="translate(63.623047 0)"/>
       <use xlink:href="#DejaVuSerif-30" transform="translate(95.410156 0)"/>
      </g>
     </g>
    </g>
    <g id="text_47">
     <!-- Time -->
     <g transform="translate(529.624844 443.685) scale(0.16 -0.16)">
      <use xlink:href="#DejaVuSerif-54"/>
      <use xlink:href="#DejaVuSerif-69" transform="translate(66.699219 0)"/>
      <use xlink:href="#DejaVuSerif-6d" transform="translate(98.681641 0)"/>
      <use xlink:href="#DejaVuSerif-65" transform="translate(193.505859 0)"/>
     </g>
    </g>
   </g>
   <g id="matplotlib.axis_8">
    <g id="ytick_14">
     <g id="line2d_56">
      <g>
       <use xlink:href="#m1237e21949" x="416.182812" y="400.562273" style="stroke: #000000; stroke-width: 0.8"/>
      </g>
     </g>
     <g id="text_48">
      <!-- 0 -->
      <g transform="translate(400.275312 405.881179) scale(0.14 -0.14)">
       <use xlink:href="#DejaVuSerif-30"/>
      </g>
     </g>
    </g>
    <g id="ytick_15">
     <g id="line2d_57">
      <g>
       <use xlink:href="#m1237e21949" x="416.182812" y="352.611209" style="stroke: #000000; stroke-width: 0.8"/>
      </g>
     </g>
     <g id="text_49">
      <!-- 2 -->
      <g transform="translate(400.275312 357.930116) scale(0.14 -0.14)">
       <use xlink:href="#DejaVuSerif-32"/>
      </g>
     </g>
    </g>
    <g id="ytick_16">
     <g id="line2d_58">
      <g>
       <use xlink:href="#m1237e21949" x="416.182812" y="304.660146" style="stroke: #000000; stroke-width: 0.8"/>
      </g>
     </g>
     <g id="text_50">
      <!-- 4 -->
      <g transform="translate(400.275312 309.979052) scale(0.14 -0.14)">
       <use xlink:href="#DejaVuSerif-34"/>
      </g>
     </g>
    </g>
    <g id="text_51">
     <!-- Cost $\;N_g \times \sum \chi_i^3$ -->
     <g transform="translate(391.315312 395.44375) rotate(-90) scale(0.16 -0.16)">
      <defs>
       <path id="DejaVuSans-Oblique-4e" d="M 1081 4666 
L 1931 4666 
L 3219 666 
L 4000 4666 
L 4616 4666 
L 3706 0 
L 2853 0 
L 1569 4025 
L 788 0 
L 172 0 
L 1081 4666 
z
" transform="scale(0.015625)"/>
       <path id="DejaVuSans-Oblique-67" d="M 3816 3500 
L 3219 434 
Q 3047 -456 2561 -893 
Q 2075 -1331 1253 -1331 
Q 950 -1331 690 -1286 
Q 431 -1241 206 -1147 
L 313 -588 
Q 525 -725 762 -790 
Q 1000 -856 1269 -856 
Q 1816 -856 2167 -557 
Q 2519 -259 2631 300 
L 2681 563 
Q 2441 288 2122 144 
Q 1803 0 1434 0 
Q 903 0 598 351 
Q 294 703 294 1319 
Q 294 1803 478 2267 
Q 663 2731 997 3091 
Q 1219 3328 1514 3456 
Q 1809 3584 2131 3584 
Q 2484 3584 2746 3420 
Q 3009 3256 3138 2956 
L 3238 3500 
L 3816 3500 
z
M 2950 2216 
Q 2950 2641 2750 2872 
Q 2550 3103 2181 3103 
Q 1953 3103 1747 3012 
Q 1541 2922 1394 2759 
Q 1156 2491 1023 2127 
Q 891 1763 891 1375 
Q 891 944 1092 712 
Q 1294 481 1672 481 
Q 2219 481 2584 976 
Q 2950 1472 2950 2216 
z
" transform="scale(0.015625)"/>
       <path id="DejaVuSans-d7" d="M 4488 3438 
L 3059 2003 
L 4488 575 
L 4116 197 
L 2681 1631 
L 1247 197 
L 878 575 
L 2303 2003 
L 878 3438 
L 1247 3816 
L 2681 2381 
L 4116 3816 
L 4488 3438 
z
" transform="scale(0.015625)"/>
       <path id="DejaVuSansDisplay-2211" d="M 244 6509 
L 5803 6509 
L 5803 5656 
L 1566 5656 
L 4534 2488 
L 1469 -888 
L 5919 -888 
L 5919 -1738 
L 109 -1738 
L 109 -1078 
L 3316 2463 
L 244 5728 
L 244 6509 
z
" transform="scale(0.015625)"/>
       <path id="DejaVuSans-33" d="M 2597 2516 
Q 3050 2419 3304 2112 
Q 3559 1806 3559 1356 
Q 3559 666 3084 287 
Q 2609 -91 1734 -91 
Q 1441 -91 1130 -33 
Q 819 25 488 141 
L 488 750 
Q 750 597 1062 519 
Q 1375 441 1716 441 
Q 2309 441 2620 675 
Q 2931 909 2931 1356 
Q 2931 1769 2642 2001 
Q 2353 2234 1838 2234 
L 1294 2234 
L 1294 2753 
L 1863 2753 
Q 2328 2753 2575 2939 
Q 2822 3125 2822 3475 
Q 2822 3834 2567 4026 
Q 2313 4219 1838 4219 
Q 1578 4219 1281 4162 
Q 984 4106 628 3988 
L 628 4550 
Q 988 4650 1302 4700 
Q 1616 4750 1894 4750 
Q 2613 4750 3031 4423 
Q 3450 4097 3450 3541 
Q 3450 3153 3228 2886 
Q 3006 2619 2597 2516 
z
" transform="scale(0.015625)"/>
       <path id="DejaVuSans-Oblique-69" d="M 1172 4863 
L 1747 4863 
L 1606 4134 
L 1031 4134 
L 1172 4863 
z
M 909 3500 
L 1484 3500 
L 800 0 
L 225 0 
L 909 3500 
z
" transform="scale(0.015625)"/>
      </defs>
      <use xlink:href="#DejaVuSerif-43" transform="translate(0 0.296875)"/>
      <use xlink:href="#DejaVuSerif-6f" transform="translate(76.513672 0.296875)"/>
      <use xlink:href="#DejaVuSerif-73" transform="translate(136.71875 0.296875)"/>
      <use xlink:href="#DejaVuSerif-74" transform="translate(188.037109 0.296875)"/>
      <use xlink:href="#DejaVuSerif-20" transform="translate(228.222656 0.296875)"/>
      <use xlink:href="#DejaVuSans-Oblique-4e" transform="translate(287.068901 0.296875)"/>
      <use xlink:href="#DejaVuSans-Oblique-67" transform="translate(361.873589 -16.109375) scale(0.7)"/>
      <use xlink:href="#DejaVuSans-d7" transform="translate(428.523979 0.296875)"/>
      <use xlink:href="#DejaVuSansDisplay-2211" transform="translate(531.795464 0.296875)"/>
      <use xlink:href="#DejaVuSans-Oblique-3c7" transform="translate(627.059136 0.296875)"/>
      <use xlink:href="#DejaVuSans-33" transform="translate(690.711532 39.6375) scale(0.7)"/>
      <use xlink:href="#DejaVuSans-Oblique-69" transform="translate(686.238823 -27.046875) scale(0.7)"/>
     </g>
    </g>
    <g id="text_52">
     <!-- 1e7 -->
     <g transform="translate(416.182812 262.829375) scale(0.14 -0.14)">
      <use xlink:href="#DejaVuSerif-31"/>
      <use xlink:href="#DejaVuSerif-65" transform="translate(63.623047 0)"/>
      <use xlink:href="#DejaVuSerif-37" transform="translate(122.802734 0)"/>
     </g>
    </g>
   </g>
   <g id="line2d_59">
    <path d="M 428.333565 400.562273 
L 452.635071 398.960707 
L 476.936577 395.575362 
L 501.238082 390.95288 
L 525.539588 387.020892 
L 549.841094 380.087169 
L 574.142599 372.48213 
L 598.444105 357.59812 
L 622.745611 312.409038 
L 647.047116 296.124857 
L 671.348622 272.245227 
" clip-path="url(#p9e00fd5540)" style="fill: none; stroke: #000000; stroke-width: 2; stroke-linecap: square"/>
   </g>
   <g id="line2d_60">
    <path d="M 428.333565 400.562273 
L 452.635071 400.469119 
L 476.936577 400.023138 
L 501.238082 399.117377 
L 525.539588 397.877176 
L 549.841094 396.416524 
L 574.142599 394.741616 
L 598.444105 392.854689 
L 622.745611 390.640039 
L 647.047116 387.773411 
L 671.348622 384.585602 
" clip-path="url(#p9e00fd5540)" style="fill: none; stroke: #1f77b4; stroke-width: 2; stroke-linecap: square"/>
   </g>
   <g id="line2d_61">
    <path d="M 428.333565 400.562273 
L 452.635071 400.253105 
L 476.936577 399.237152 
L 501.238082 397.806093 
L 525.539588 395.966033 
L 549.841094 393.667711 
L 574.142599 390.844465 
L 598.444105 387.421896 
L 622.745611 383.876891 
L 647.047116 379.102532 
L 671.348622 374.528147 
" clip-path="url(#p9e00fd5540)" style="fill: none; stroke: #ff7f0e; stroke-width: 2; stroke-linecap: square"/>
   </g>
   <g id="line2d_62">
    <path d="M 428.333565 400.562273 
L 452.635071 400.0092 
L 476.936577 398.14531 
L 501.238082 395.948631 
L 525.539588 392.880974 
L 549.841094 389.425481 
L 574.142599 385.295286 
L 598.444105 379.782042 
L 622.745611 372.669321 
L 647.047116 365.4376 
L 671.348622 358.228001 
" clip-path="url(#p9e00fd5540)" style="fill: none; stroke: #2ca02c; stroke-width: 2; stroke-linecap: square"/>
   </g>
   <g id="line2d_63">
    <path d="M 428.333565 400.562273 
L 452.635071 399.733868 
L 476.936577 397.349227 
L 501.238082 393.547859 
L 525.539588 388.700746 
L 549.841094 383.160627 
L 574.142599 377.070135 
L 598.444105 369.253587 
L 622.745611 359.067793 
L 647.047116 345.129498 
L 671.348622 329.92278 
" clip-path="url(#p9e00fd5540)" style="fill: none; stroke: #d62728; stroke-width: 2; stroke-linecap: square"/>
   </g>
   <g id="line2d_64">
    <path d="M 428.333565 400.562273 
L 452.635071 399.000935 
L 476.936577 396.089733 
L 501.238082 390.374338 
L 525.539588 382.789775 
L 549.841094 374.181825 
L 574.142599 363.27197 
L 598.444105 349.444171 
L 622.745611 332.862612 
L 647.047116 312.962935 
L 671.348622 289.152377 
" clip-path="url(#p9e00fd5540)" style="fill: none; stroke: #9467bd; stroke-width: 2; stroke-linecap: square"/>
   </g>
   <g id="patch_18">
    <path d="M 416.182812 406.978125 
L 416.182812 265.829375 
" style="fill: none; stroke: #000000; stroke-width: 0.8; stroke-linejoin: miter; stroke-linecap: square"/>
   </g>
   <g id="patch_19">
    <path d="M 683.499375 406.978125 
L 683.499375 265.829375 
" style="fill: none; stroke: #000000; stroke-width: 0.8; stroke-linejoin: miter; stroke-linecap: square"/>
   </g>
   <g id="patch_20">
    <path d="M 416.182812 406.978125 
L 683.499375 406.978125 
" style="fill: none; stroke: #000000; stroke-width: 0.8; stroke-linejoin: miter; stroke-linecap: square"/>
   </g>
   <g id="patch_21">
    <path d="M 416.182812 265.829375 
L 683.499375 265.829375 
" style="fill: none; stroke: #000000; stroke-width: 0.8; stroke-linejoin: miter; stroke-linecap: square"/>
   </g>
   <g id="text_53">
    <!-- $\bf{D}$  Cost metric -->
    <g transform="translate(416.182812 246.191562) scale(0.2 -0.2)">
     <defs>
      <path id="DejaVuSans-Bold-44" d="M 1791 3756 
L 1791 909 
L 2222 909 
Q 2959 909 3348 1275 
Q 3738 1641 3738 2338 
Q 3738 3031 3350 3393 
Q 2963 3756 2222 3756 
L 1791 3756 
z
M 588 4666 
L 1856 4666 
Q 2919 4666 3439 4514 
Q 3959 4363 4331 4000 
Q 4659 3684 4818 3271 
Q 4978 2859 4978 2338 
Q 4978 1809 4818 1395 
Q 4659 981 4331 666 
Q 3956 303 3431 151 
Q 2906 0 1856 0 
L 588 0 
L 588 4666 
z
" transform="scale(0.015625)"/>
      <path id="DejaVuSerif-72" d="M 3059 3328 
L 3059 2497 
L 2728 2497 
Q 2713 2744 2591 2866 
Q 2469 2988 2234 2988 
Q 1809 2988 1582 2694 
Q 1356 2400 1356 1850 
L 1356 331 
L 2022 331 
L 2022 0 
L 263 0 
L 263 331 
L 781 331 
L 781 2994 
L 231 2994 
L 231 3322 
L 1356 3322 
L 1356 2731 
Q 1525 3078 1790 3245 
Q 2056 3413 2438 3413 
Q 2578 3413 2733 3391 
Q 2888 3369 3059 3328 
z
" transform="scale(0.015625)"/>
     </defs>
     <use xlink:href="#DejaVuSans-Bold-44" transform="translate(0 0.78125)"/>
     <use xlink:href="#DejaVuSerif-20" transform="translate(83.007812 0.78125)"/>
     <use xlink:href="#DejaVuSerif-20" transform="translate(114.794922 0.78125)"/>
     <use xlink:href="#DejaVuSerif-43" transform="translate(146.582031 0.78125)"/>
     <use xlink:href="#DejaVuSerif-6f" transform="translate(223.095703 0.78125)"/>
     <use xlink:href="#DejaVuSerif-73" transform="translate(283.300781 0.78125)"/>
     <use xlink:href="#DejaVuSerif-74" transform="translate(334.619141 0.78125)"/>
     <use xlink:href="#DejaVuSerif-20" transform="translate(374.804688 0.78125)"/>
     <use xlink:href="#DejaVuSerif-6d" transform="translate(406.591797 0.78125)"/>
     <use xlink:href="#DejaVuSerif-65" transform="translate(501.416016 0.78125)"/>
     <use xlink:href="#DejaVuSerif-74" transform="translate(560.595703 0.78125)"/>
     <use xlink:href="#DejaVuSerif-72" transform="translate(600.78125 0.78125)"/>
     <use xlink:href="#DejaVuSerif-69" transform="translate(648.583984 0.78125)"/>
     <use xlink:href="#DejaVuSerif-63" transform="translate(680.566406 0.78125)"/>
    </g>
   </g>
  </g>
  <g id="legend_1">
   <g id="line2d_65">
    <path d="M 56.699375 457.719063 
L 70.699375 457.719063 
L 84.699375 457.719063 
" style="fill: none; stroke: #000000; stroke-width: 2; stroke-linecap: square"/>
   </g>
   <g id="text_54">
    <!-- Trotter -->
    <g transform="translate(95.899375 462.619062) scale(0.14 -0.14)">
     <use xlink:href="#DejaVuSerif-54"/>
     <use xlink:href="#DejaVuSerif-72" transform="translate(66.699219 0)"/>
     <use xlink:href="#DejaVuSerif-6f" transform="translate(114.501953 0)"/>
     <use xlink:href="#DejaVuSerif-74" transform="translate(174.707031 0)"/>
     <use xlink:href="#DejaVuSerif-74" transform="translate(214.892578 0)"/>
     <use xlink:href="#DejaVuSerif-65" transform="translate(255.078125 0)"/>
     <use xlink:href="#DejaVuSerif-72" transform="translate(314.257812 0)"/>
    </g>
   </g>
   <g id="line2d_66">
    <path d="M 56.699375 478.268438 
L 70.699375 478.268438 
L 84.699375 478.268438 
" style="fill: none; stroke: #1f77b4; stroke-width: 2; stroke-linecap: square"/>
   </g>
   <g id="text_55">
    <!-- TE-PAI ($\Delta=\pi/128$) -->
    <g transform="translate(95.899375 483.168437) scale(0.14 -0.14)">
     <defs>
      <path id="DejaVuSerif-2d" d="M 281 1959 
L 1881 1959 
L 1881 1472 
L 281 1472 
L 281 1959 
z
" transform="scale(0.015625)"/>
      <path id="DejaVuSerif-50" d="M 1581 2375 
L 2406 2375 
Q 2872 2375 3115 2626 
Q 3359 2878 3359 3353 
Q 3359 3831 3115 4081 
Q 2872 4331 2406 4331 
L 1581 4331 
L 1581 2375 
z
M 353 0 
L 353 331 
L 947 331 
L 947 4331 
L 353 4331 
L 353 4666 
L 2559 4666 
Q 3259 4666 3668 4311 
Q 4078 3956 4078 3353 
Q 4078 2753 3668 2397 
Q 3259 2041 2559 2041 
L 1581 2041 
L 1581 331 
L 2303 331 
L 2303 0 
L 353 0 
z
" transform="scale(0.015625)"/>
      <path id="DejaVuSerif-41" d="M 1281 1691 
L 2994 1691 
L 2138 3909 
L 1281 1691 
z
M -38 0 
L -38 331 
L 372 331 
L 2034 4666 
L 2559 4666 
L 4225 331 
L 4684 331 
L 4684 0 
L 2988 0 
L 2988 331 
L 3506 331 
L 3116 1356 
L 1153 1356 
L 763 331 
L 1275 331 
L 1275 0 
L -38 0 
z
" transform="scale(0.015625)"/>
      <path id="DejaVuSerif-49" d="M 1581 331 
L 2175 331 
L 2175 0 
L 353 0 
L 353 331 
L 947 331 
L 947 4331 
L 353 4331 
L 353 4666 
L 2175 4666 
L 2175 4331 
L 1581 4331 
L 1581 331 
z
" transform="scale(0.015625)"/>
      <path id="DejaVuSerif-28" d="M 2041 -997 
Q 1281 -656 893 83 
Q 506 822 506 1931 
Q 506 3044 893 3783 
Q 1281 4522 2041 4863 
L 2041 4556 
Q 1559 4225 1350 3623 
Q 1141 3022 1141 1931 
Q 1141 844 1350 242 
Q 1559 -359 2041 -691 
L 2041 -997 
z
" transform="scale(0.015625)"/>
      <path id="DejaVuSans-394" d="M 2188 4044 
L 906 525 
L 3472 525 
L 2188 4044 
z
M 50 0 
L 1831 4666 
L 2547 4666 
L 4325 0 
L 50 0 
z
" transform="scale(0.015625)"/>
      <path id="DejaVuSans-3d" d="M 678 2906 
L 4684 2906 
L 4684 2381 
L 678 2381 
L 678 2906 
z
M 678 1631 
L 4684 1631 
L 4684 1100 
L 678 1100 
L 678 1631 
z
" transform="scale(0.015625)"/>
      <path id="DejaVuSans-Oblique-3c0" d="M 584 3500 
L 3938 3500 
L 3825 2925 
L 3384 2925 
L 2966 775 
Q 2922 550 2981 450 
Q 3038 353 3209 353 
Q 3256 353 3325 363 
Q 3397 369 3419 372 
L 3338 -44 
Q 3222 -84 3103 -103 
Q 2981 -122 2866 -122 
Q 2491 -122 2388 81 
Q 2284 288 2391 838 
L 2797 2925 
L 1506 2925 
L 938 0 
L 350 0 
L 919 2925 
L 472 2925 
L 584 3500 
z
" transform="scale(0.015625)"/>
      <path id="DejaVuSans-2f" d="M 1625 4666 
L 2156 4666 
L 531 -594 
L 0 -594 
L 1625 4666 
z
" transform="scale(0.015625)"/>
      <path id="DejaVuSans-31" d="M 794 531 
L 1825 531 
L 1825 4091 
L 703 3866 
L 703 4441 
L 1819 4666 
L 2450 4666 
L 2450 531 
L 3481 531 
L 3481 0 
L 794 0 
L 794 531 
z
" transform="scale(0.015625)"/>
      <path id="DejaVuSans-32" d="M 1228 531 
L 3431 531 
L 3431 0 
L 469 0 
L 469 531 
Q 828 903 1448 1529 
Q 2069 2156 2228 2338 
Q 2531 2678 2651 2914 
Q 2772 3150 2772 3378 
Q 2772 3750 2511 3984 
Q 2250 4219 1831 4219 
Q 1534 4219 1204 4116 
Q 875 4013 500 3803 
L 500 4441 
Q 881 4594 1212 4672 
Q 1544 4750 1819 4750 
Q 2544 4750 2975 4387 
Q 3406 4025 3406 3419 
Q 3406 3131 3298 2873 
Q 3191 2616 2906 2266 
Q 2828 2175 2409 1742 
Q 1991 1309 1228 531 
z
" transform="scale(0.015625)"/>
      <path id="DejaVuSans-38" d="M 2034 2216 
Q 1584 2216 1326 1975 
Q 1069 1734 1069 1313 
Q 1069 891 1326 650 
Q 1584 409 2034 409 
Q 2484 409 2743 651 
Q 3003 894 3003 1313 
Q 3003 1734 2745 1975 
Q 2488 2216 2034 2216 
z
M 1403 2484 
Q 997 2584 770 2862 
Q 544 3141 544 3541 
Q 544 4100 942 4425 
Q 1341 4750 2034 4750 
Q 2731 4750 3128 4425 
Q 3525 4100 3525 3541 
Q 3525 3141 3298 2862 
Q 3072 2584 2669 2484 
Q 3125 2378 3379 2068 
Q 3634 1759 3634 1313 
Q 3634 634 3220 271 
Q 2806 -91 2034 -91 
Q 1263 -91 848 271 
Q 434 634 434 1313 
Q 434 1759 690 2068 
Q 947 2378 1403 2484 
z
M 1172 3481 
Q 1172 3119 1398 2916 
Q 1625 2713 2034 2713 
Q 2441 2713 2670 2916 
Q 2900 3119 2900 3481 
Q 2900 3844 2670 4047 
Q 2441 4250 2034 4250 
Q 1625 4250 1398 4047 
Q 1172 3844 1172 3481 
z
" transform="scale(0.015625)"/>
      <path id="DejaVuSerif-29" d="M 453 -997 
L 453 -691 
Q 934 -359 1145 242 
Q 1356 844 1356 1931 
Q 1356 3022 1145 3623 
Q 934 4225 453 4556 
L 453 4863 
Q 1216 4522 1603 3783 
Q 1991 3044 1991 1931 
Q 1991 822 1603 83 
Q 1216 -656 453 -997 
z
" transform="scale(0.015625)"/>
     </defs>
     <use xlink:href="#DejaVuSerif-54" transform="translate(0 0.015625)"/>
     <use xlink:href="#DejaVuSerif-45" transform="translate(66.699219 0.015625)"/>
     <use xlink:href="#DejaVuSerif-2d" transform="translate(139.697266 0.015625)"/>
     <use xlink:href="#DejaVuSerif-50" transform="translate(173.486328 0.015625)"/>
     <use xlink:href="#DejaVuSerif-41" transform="translate(240.771484 0.015625)"/>
     <use xlink:href="#DejaVuSerif-49" transform="translate(312.988281 0.015625)"/>
     <use xlink:href="#DejaVuSerif-20" transform="translate(352.490234 0.015625)"/>
     <use xlink:href="#DejaVuSerif-28" transform="translate(384.277344 0.015625)"/>
     <use xlink:href="#DejaVuSans-394" transform="translate(423.291016 0.015625)"/>
     <use xlink:href="#DejaVuSans-3d" transform="translate(511.181641 0.015625)"/>
     <use xlink:href="#DejaVuSans-Oblique-3c0" transform="translate(614.453125 0.015625)"/>
     <use xlink:href="#DejaVuSans-2f" transform="translate(674.658203 0.015625)"/>
     <use xlink:href="#DejaVuSans-31" transform="translate(708.349609 0.015625)"/>
     <use xlink:href="#DejaVuSans-32" transform="translate(771.972656 0.015625)"/>
     <use xlink:href="#DejaVuSans-38" transform="translate(835.595703 0.015625)"/>
     <use xlink:href="#DejaVuSerif-29" transform="translate(899.21875 0.015625)"/>
    </g>
   </g>
   <g id="line2d_67">
    <path d="M 255.359375 457.719063 
L 269.359375 457.719063 
L 283.359375 457.719063 
" style="fill: none; stroke: #ff7f0e; stroke-width: 2; stroke-linecap: square"/>
   </g>
   <g id="text_56">
    <!-- TE-PAI ($\Delta=\pi/256$) -->
    <g transform="translate(294.559375 462.619062) scale(0.14 -0.14)">
     <defs>
      <path id="DejaVuSans-35" d="M 691 4666 
L 3169 4666 
L 3169 4134 
L 1269 4134 
L 1269 2991 
Q 1406 3038 1543 3061 
Q 1681 3084 1819 3084 
Q 2600 3084 3056 2656 
Q 3513 2228 3513 1497 
Q 3513 744 3044 326 
Q 2575 -91 1722 -91 
Q 1428 -91 1123 -41 
Q 819 9 494 109 
L 494 744 
Q 775 591 1075 516 
Q 1375 441 1709 441 
Q 2250 441 2565 725 
Q 2881 1009 2881 1497 
Q 2881 1984 2565 2268 
Q 2250 2553 1709 2553 
Q 1456 2553 1204 2497 
Q 953 2441 691 2322 
L 691 4666 
z
" transform="scale(0.015625)"/>
      <path id="DejaVuSans-36" d="M 2113 2584 
Q 1688 2584 1439 2293 
Q 1191 2003 1191 1497 
Q 1191 994 1439 701 
Q 1688 409 2113 409 
Q 2538 409 2786 701 
Q 3034 994 3034 1497 
Q 3034 2003 2786 2293 
Q 2538 2584 2113 2584 
z
M 3366 4563 
L 3366 3988 
Q 3128 4100 2886 4159 
Q 2644 4219 2406 4219 
Q 1781 4219 1451 3797 
Q 1122 3375 1075 2522 
Q 1259 2794 1537 2939 
Q 1816 3084 2150 3084 
Q 2853 3084 3261 2657 
Q 3669 2231 3669 1497 
Q 3669 778 3244 343 
Q 2819 -91 2113 -91 
Q 1303 -91 875 529 
Q 447 1150 447 2328 
Q 447 3434 972 4092 
Q 1497 4750 2381 4750 
Q 2619 4750 2861 4703 
Q 3103 4656 3366 4563 
z
" transform="scale(0.015625)"/>
     </defs>
     <use xlink:href="#DejaVuSerif-54" transform="translate(0 0.015625)"/>
     <use xlink:href="#DejaVuSerif-45" transform="translate(66.699219 0.015625)"/>
     <use xlink:href="#DejaVuSerif-2d" transform="translate(139.697266 0.015625)"/>
     <use xlink:href="#DejaVuSerif-50" transform="translate(173.486328 0.015625)"/>
     <use xlink:href="#DejaVuSerif-41" transform="translate(240.771484 0.015625)"/>
     <use xlink:href="#DejaVuSerif-49" transform="translate(312.988281 0.015625)"/>
     <use xlink:href="#DejaVuSerif-20" transform="translate(352.490234 0.015625)"/>
     <use xlink:href="#DejaVuSerif-28" transform="translate(384.277344 0.015625)"/>
     <use xlink:href="#DejaVuSans-394" transform="translate(423.291016 0.015625)"/>
     <use xlink:href="#DejaVuSans-3d" transform="translate(511.181641 0.015625)"/>
     <use xlink:href="#DejaVuSans-Oblique-3c0" transform="translate(614.453125 0.015625)"/>
     <use xlink:href="#DejaVuSans-2f" transform="translate(674.658203 0.015625)"/>
     <use xlink:href="#DejaVuSans-32" transform="translate(704.724609 0.015625)"/>
     <use xlink:href="#DejaVuSans-35" transform="translate(768.347656 0.015625)"/>
     <use xlink:href="#DejaVuSans-36" transform="translate(831.970703 0.015625)"/>
     <use xlink:href="#DejaVuSerif-29" transform="translate(895.59375 0.015625)"/>
    </g>
   </g>
   <g id="line2d_68">
    <path d="M 255.359375 478.268438 
L 269.359375 478.268438 
L 283.359375 478.268438 
" style="fill: none; stroke: #2ca02c; stroke-width: 2; stroke-linecap: square"/>
   </g>
   <g id="text_57">
    <!-- TE-PAI ($\Delta=\pi/512$) -->
    <g transform="translate(294.559375 483.168437) scale(0.14 -0.14)">
     <use xlink:href="#DejaVuSerif-54" transform="translate(0 0.015625)"/>
     <use xlink:href="#DejaVuSerif-45" transform="translate(66.699219 0.015625)"/>
     <use xlink:href="#DejaVuSerif-2d" transform="translate(139.697266 0.015625)"/>
     <use xlink:href="#DejaVuSerif-50" transform="translate(173.486328 0.015625)"/>
     <use xlink:href="#DejaVuSerif-41" transform="translate(240.771484 0.015625)"/>
     <use xlink:href="#DejaVuSerif-49" transform="translate(312.988281 0.015625)"/>
     <use xlink:href="#DejaVuSerif-20" transform="translate(352.490234 0.015625)"/>
     <use xlink:href="#DejaVuSerif-28" transform="translate(384.277344 0.015625)"/>
     <use xlink:href="#DejaVuSans-394" transform="translate(423.291016 0.015625)"/>
     <use xlink:href="#DejaVuSans-3d" transform="translate(511.181641 0.015625)"/>
     <use xlink:href="#DejaVuSans-Oblique-3c0" transform="translate(614.453125 0.015625)"/>
     <use xlink:href="#DejaVuSans-2f" transform="translate(674.658203 0.015625)"/>
     <use xlink:href="#DejaVuSans-35" transform="translate(708.349609 0.015625)"/>
     <use xlink:href="#DejaVuSans-31" transform="translate(771.972656 0.015625)"/>
     <use xlink:href="#DejaVuSans-32" transform="translate(835.595703 0.015625)"/>
     <use xlink:href="#DejaVuSerif-29" transform="translate(899.21875 0.015625)"/>
    </g>
   </g>
   <g id="line2d_69">
    <path d="M 454.019375 457.719063 
L 468.019375 457.719063 
L 482.019375 457.719063 
" style="fill: none; stroke: #d62728; stroke-width: 2; stroke-linecap: square"/>
   </g>
   <g id="text_58">
    <!-- TE-PAI ($\Delta=\pi/1024$) -->
    <g transform="translate(493.219375 462.619062) scale(0.14 -0.14)">
     <defs>
      <path id="DejaVuSans-34" d="M 2419 4116 
L 825 1625 
L 2419 1625 
L 2419 4116 
z
M 2253 4666 
L 3047 4666 
L 3047 1625 
L 3713 1625 
L 3713 1100 
L 3047 1100 
L 3047 0 
L 2419 0 
L 2419 1100 
L 313 1100 
L 313 1709 
L 2253 4666 
z
" transform="scale(0.015625)"/>
     </defs>
     <use xlink:href="#DejaVuSerif-54" transform="translate(0 0.015625)"/>
     <use xlink:href="#DejaVuSerif-45" transform="translate(66.699219 0.015625)"/>
     <use xlink:href="#DejaVuSerif-2d" transform="translate(139.697266 0.015625)"/>
     <use xlink:href="#DejaVuSerif-50" transform="translate(173.486328 0.015625)"/>
     <use xlink:href="#DejaVuSerif-41" transform="translate(240.771484 0.015625)"/>
     <use xlink:href="#DejaVuSerif-49" transform="translate(312.988281 0.015625)"/>
     <use xlink:href="#DejaVuSerif-20" transform="translate(352.490234 0.015625)"/>
     <use xlink:href="#DejaVuSerif-28" transform="translate(384.277344 0.015625)"/>
     <use xlink:href="#DejaVuSans-394" transform="translate(423.291016 0.015625)"/>
     <use xlink:href="#DejaVuSans-3d" transform="translate(511.181641 0.015625)"/>
     <use xlink:href="#DejaVuSans-Oblique-3c0" transform="translate(614.453125 0.015625)"/>
     <use xlink:href="#DejaVuSans-2f" transform="translate(674.658203 0.015625)"/>
     <use xlink:href="#DejaVuSans-31" transform="translate(708.349609 0.015625)"/>
     <use xlink:href="#DejaVuSans-30" transform="translate(771.972656 0.015625)"/>
     <use xlink:href="#DejaVuSans-32" transform="translate(835.595703 0.015625)"/>
     <use xlink:href="#DejaVuSans-34" transform="translate(899.21875 0.015625)"/>
     <use xlink:href="#DejaVuSerif-29" transform="translate(962.841797 0.015625)"/>
    </g>
   </g>
   <g id="line2d_70">
    <path d="M 454.019375 478.268438 
L 468.019375 478.268438 
L 482.019375 478.268438 
" style="fill: none; stroke: #9467bd; stroke-width: 2; stroke-linecap: square"/>
   </g>
   <g id="text_59">
    <!-- TE-PAI ($\Delta=\pi/2048$) -->
    <g transform="translate(493.219375 483.168437) scale(0.14 -0.14)">
     <use xlink:href="#DejaVuSerif-54" transform="translate(0 0.015625)"/>
     <use xlink:href="#DejaVuSerif-45" transform="translate(66.699219 0.015625)"/>
     <use xlink:href="#DejaVuSerif-2d" transform="translate(139.697266 0.015625)"/>
     <use xlink:href="#DejaVuSerif-50" transform="translate(173.486328 0.015625)"/>
     <use xlink:href="#DejaVuSerif-41" transform="translate(240.771484 0.015625)"/>
     <use xlink:href="#DejaVuSerif-49" transform="translate(312.988281 0.015625)"/>
     <use xlink:href="#DejaVuSerif-20" transform="translate(352.490234 0.015625)"/>
     <use xlink:href="#DejaVuSerif-28" transform="translate(384.277344 0.015625)"/>
     <use xlink:href="#DejaVuSans-394" transform="translate(423.291016 0.015625)"/>
     <use xlink:href="#DejaVuSans-3d" transform="translate(511.181641 0.015625)"/>
     <use xlink:href="#DejaVuSans-Oblique-3c0" transform="translate(614.453125 0.015625)"/>
     <use xlink:href="#DejaVuSans-2f" transform="translate(674.658203 0.015625)"/>
     <use xlink:href="#DejaVuSans-32" transform="translate(704.724609 0.015625)"/>
     <use xlink:href="#DejaVuSans-30" transform="translate(768.347656 0.015625)"/>
     <use xlink:href="#DejaVuSans-34" transform="translate(831.970703 0.015625)"/>
     <use xlink:href="#DejaVuSans-38" transform="translate(895.59375 0.015625)"/>
     <use xlink:href="#DejaVuSerif-29" transform="translate(959.216797 0.015625)"/>
    </g>
   </g>
  </g>
 </g>
 <defs>
  <clipPath id="p1f87bcea30">
   <rect x="55.949375" y="28.4" width="267.316563" height="141.14875"/>
  </clipPath>
  <clipPath id="p4e3a8cf3d1">
   <rect x="416.182812" y="28.4" width="267.316563" height="141.14875"/>
  </clipPath>
  <clipPath id="p8910856770">
   <rect x="55.949375" y="265.829375" width="267.316563" height="141.14875"/>
  </clipPath>
  <clipPath id="p9e00fd5540">
   <rect x="416.182812" y="265.829375" width="267.316563" height="141.14875"/>
  </clipPath>
 </defs>
</svg>
